<?xml version="1.0" encoding="UTF-8" standalone="no"?>
<!DOCTYPE svg PUBLIC "-//W3C//DTD SVG 1.1//EN"
 "http://www.w3.org/Graphics/SVG/1.1/DTD/svg11.dtd">
<!-- Generated by graphviz version 2.43.20190912.0211 (20190912.0211)
 -->
<!-- Title: tree Pages: 1 -->
<svg width="2056pt" height="305pt"
 viewBox="0.00 0.00 2055.60 305.00" xmlns="http://www.w3.org/2000/svg" xmlns:xlink="http://www.w3.org/1999/xlink">
<g id="graph0" class="graph" transform="scale(1 1) rotate(0) translate(4 301)">
<title>tree</title>
<polygon fill="white" stroke="transparent" points="-4,4 -4,-301 2051.6,-301 2051.6,4 -4,4"/>
<!-- root -->
<g id="node1" class="node">
<title>root</title>
<ellipse fill="none" stroke="black" cx="1027.6" cy="-279" rx="116.98" ry="18"/>
<text text-anchor="middle" x="1027.6" y="-275.3" font-family="Times,serif" font-size="14.00">b1+b2+b3+b4?b5+b6+b7+b8</text>
</g>
<!-- G -->
<g id="node2" class="node">
<title>G</title>
<ellipse fill="none" stroke="black" cx="421.6" cy="-192" rx="89.08" ry="18"/>
<text text-anchor="middle" x="421.6" y="-188.3" font-family="Times,serif" font-size="14.00">b1+b2+b9?b3+b4+b8</text>
</g>
<!-- root&#45;&gt;G -->
<g id="edge1" class="edge">
<title>root&#45;&gt;G</title>
<path fill="none" stroke="black" d="M944.29,-266.31C827.93,-249.99 618.08,-220.56 502.84,-204.4"/>
<polygon fill="black" stroke="black" points="503.06,-200.89 492.67,-202.97 502.09,-207.82 503.06,-200.89"/>
<text text-anchor="middle" x="766.1" y="-231.8" font-family="Times,serif" font-size="14.00">&gt;</text>
</g>
<!-- E -->
<g id="node3" class="node">
<title>E</title>
<ellipse fill="none" stroke="black" cx="1027.6" cy="-192" rx="97.48" ry="18"/>
<text text-anchor="middle" x="1027.6" y="-188.3" font-family="Times,serif" font-size="14.00">b1+b2+b3?b9+b10+b11</text>
</g>
<!-- root&#45;&gt;E -->
<g id="edge2" class="edge">
<title>root&#45;&gt;E</title>
<path fill="none" stroke="black" d="M1027.6,-260.8C1027.6,-249.16 1027.6,-233.55 1027.6,-220.24"/>
<polygon fill="black" stroke="black" points="1031.1,-220.18 1027.6,-210.18 1024.1,-220.18 1031.1,-220.18"/>
<text text-anchor="middle" x="1032.1" y="-231.8" font-family="Times,serif" font-size="14.00">=</text>
</g>
<!-- L -->
<g id="node4" class="node">
<title>L</title>
<ellipse fill="none" stroke="black" cx="1634.6" cy="-192" rx="89.08" ry="18"/>
<text text-anchor="middle" x="1634.6" y="-188.3" font-family="Times,serif" font-size="14.00">b5+b6+b9?b4+b7+b8</text>
</g>
<!-- root&#45;&gt;L -->
<g id="edge3" class="edge">
<title>root&#45;&gt;L</title>
<path fill="none" stroke="black" d="M1111.04,-266.31C1227.6,-249.99 1437.79,-220.56 1553.22,-204.4"/>
<polygon fill="black" stroke="black" points="1553.99,-207.82 1563.41,-202.97 1553.02,-200.89 1553.99,-207.82"/>
<text text-anchor="middle" x="1372.1" y="-231.8" font-family="Times,serif" font-size="14.00">&lt;</text>
</g>
<!-- GG -->
<g id="node5" class="node">
<title>GG</title>
<ellipse fill="none" stroke="black" cx="141.6" cy="-105" rx="32.49" ry="18"/>
<text text-anchor="middle" x="141.6" y="-101.3" font-family="Times,serif" font-size="14.00">b1?b2</text>
</g>
<!-- G&#45;&gt;GG -->
<g id="edge4" class="edge">
<title>G&#45;&gt;GG</title>
<path fill="none" stroke="black" d="M374.42,-176.68C319.45,-159.99 229.73,-132.75 179.22,-117.42"/>
<polygon fill="black" stroke="black" points="179.95,-113.99 169.37,-114.43 177.92,-120.68 179.95,-113.99"/>
<text text-anchor="middle" x="303.1" y="-144.8" font-family="Times,serif" font-size="14.00">&gt;</text>
</g>
<!-- GE -->
<g id="node6" class="node">
<title>GE</title>
<ellipse fill="none" stroke="black" cx="346.6" cy="-105" rx="32.49" ry="18"/>
<text text-anchor="middle" x="346.6" y="-101.3" font-family="Times,serif" font-size="14.00">b5?b6</text>
</g>
<!-- G&#45;&gt;GE -->
<g id="edge5" class="edge">
<title>G&#45;&gt;GE</title>
<path fill="none" stroke="black" d="M406.78,-174.21C395.5,-161.43 379.84,-143.68 367.32,-129.49"/>
<polygon fill="black" stroke="black" points="369.61,-126.79 360.37,-121.61 364.36,-131.43 369.61,-126.79"/>
<text text-anchor="middle" x="393.1" y="-144.8" font-family="Times,serif" font-size="14.00">=</text>
</g>
<!-- GL -->
<g id="node7" class="node">
<title>GL</title>
<ellipse fill="none" stroke="black" cx="514.6" cy="-105" rx="32.49" ry="18"/>
<text text-anchor="middle" x="514.6" y="-101.3" font-family="Times,serif" font-size="14.00">b3?b4</text>
</g>
<!-- G&#45;&gt;GL -->
<g id="edge6" class="edge">
<title>G&#45;&gt;GL</title>
<path fill="none" stroke="black" d="M439.97,-174.21C454.49,-160.94 474.86,-142.32 490.65,-127.89"/>
<polygon fill="black" stroke="black" points="493.42,-130.1 498.44,-120.77 488.69,-124.93 493.42,-130.1"/>
<text text-anchor="middle" x="479.1" y="-144.8" font-family="Times,serif" font-size="14.00">&lt;</text>
</g>
<!-- EG -->
<g id="node8" class="node">
<title>EG</title>
<ellipse fill="none" stroke="black" cx="826.6" cy="-105" rx="36.29" ry="18"/>
<text text-anchor="middle" x="826.6" y="-101.3" font-family="Times,serif" font-size="14.00">b9?b10</text>
</g>
<!-- E&#45;&gt;EG -->
<g id="edge7" class="edge">
<title>E&#45;&gt;EG</title>
<path fill="none" stroke="black" d="M990.26,-175.21C953.94,-159.85 899.11,-136.66 863.08,-121.43"/>
<polygon fill="black" stroke="black" points="864.02,-118.03 853.45,-117.36 861.3,-124.47 864.02,-118.03"/>
<text text-anchor="middle" x="944.1" y="-144.8" font-family="Times,serif" font-size="14.00">&gt;</text>
</g>
<!-- EE -->
<g id="node9" class="node">
<title>EE</title>
<ellipse fill="none" stroke="black" cx="1027.6" cy="-105" rx="36.29" ry="18"/>
<text text-anchor="middle" x="1027.6" y="-101.3" font-family="Times,serif" font-size="14.00">b1?b12</text>
</g>
<!-- E&#45;&gt;EE -->
<g id="edge8" class="edge">
<title>E&#45;&gt;EE</title>
<path fill="none" stroke="black" d="M1027.6,-173.8C1027.6,-162.16 1027.6,-146.55 1027.6,-133.24"/>
<polygon fill="black" stroke="black" points="1031.1,-133.18 1027.6,-123.18 1024.1,-133.18 1031.1,-133.18"/>
<text text-anchor="middle" x="1032.1" y="-144.8" font-family="Times,serif" font-size="14.00">=</text>
</g>
<!-- EL -->
<g id="node10" class="node">
<title>EL</title>
<ellipse fill="none" stroke="black" cx="1219.6" cy="-105" rx="36.29" ry="18"/>
<text text-anchor="middle" x="1219.6" y="-101.3" font-family="Times,serif" font-size="14.00">b9?b10</text>
</g>
<!-- E&#45;&gt;EL -->
<g id="edge9" class="edge">
<title>E&#45;&gt;EL</title>
<path fill="none" stroke="black" d="M1063.26,-175.21C1097.76,-159.94 1149.73,-136.93 1184.16,-121.69"/>
<polygon fill="black" stroke="black" points="1185.64,-124.86 1193.37,-117.61 1182.81,-118.46 1185.64,-124.86"/>
<text text-anchor="middle" x="1140.1" y="-144.8" font-family="Times,serif" font-size="14.00">&lt;</text>
</g>
<!-- LG -->
<g id="node11" class="node">
<title>LG</title>
<ellipse fill="none" stroke="black" cx="1522.6" cy="-105" rx="32.49" ry="18"/>
<text text-anchor="middle" x="1522.6" y="-101.3" font-family="Times,serif" font-size="14.00">b5?b6</text>
</g>
<!-- L&#45;&gt;LG -->
<g id="edge10" class="edge">
<title>L&#45;&gt;LG</title>
<path fill="none" stroke="black" d="M1612.74,-174.41C1594.55,-160.61 1568.59,-140.9 1549.2,-126.19"/>
<polygon fill="black" stroke="black" points="1551.15,-123.27 1541.06,-120.02 1546.91,-128.85 1551.15,-123.27"/>
<text text-anchor="middle" x="1590.1" y="-144.8" font-family="Times,serif" font-size="14.00">&gt;</text>
</g>
<!-- LE -->
<g id="node12" class="node">
<title>LE</title>
<ellipse fill="none" stroke="black" cx="1710.6" cy="-105" rx="32.49" ry="18"/>
<text text-anchor="middle" x="1710.6" y="-101.3" font-family="Times,serif" font-size="14.00">b1?b2</text>
</g>
<!-- L&#45;&gt;LE -->
<g id="edge11" class="edge">
<title>L&#45;&gt;LE</title>
<path fill="none" stroke="black" d="M1649.61,-174.21C1661.22,-161.23 1677.41,-143.12 1690.19,-128.82"/>
<polygon fill="black" stroke="black" points="1692.83,-131.12 1696.89,-121.33 1687.62,-126.45 1692.83,-131.12"/>
<text text-anchor="middle" x="1682.1" y="-144.8" font-family="Times,serif" font-size="14.00">=</text>
</g>
<!-- LL -->
<g id="node13" class="node">
<title>LL</title>
<ellipse fill="none" stroke="black" cx="1908.6" cy="-105" rx="32.49" ry="18"/>
<text text-anchor="middle" x="1908.6" y="-101.3" font-family="Times,serif" font-size="14.00">b7?b8</text>
</g>
<!-- L&#45;&gt;LL -->
<g id="edge12" class="edge">
<title>L&#45;&gt;LL</title>
<path fill="none" stroke="black" d="M1681.08,-176.58C1734.64,-159.96 1821.63,-132.98 1871.08,-117.64"/>
<polygon fill="black" stroke="black" points="1872.23,-120.95 1880.74,-114.64 1870.16,-114.26 1872.23,-120.95"/>
<text text-anchor="middle" x="1793.1" y="-144.8" font-family="Times,serif" font-size="14.00">&lt;</text>
</g>
<!-- GGG -->
<g id="node14" class="node">
<title>GGG</title>
<ellipse fill="none" stroke="black" cx="28.6" cy="-18" rx="28.7" ry="18"/>
<text text-anchor="middle" x="28.6" y="-14.3" font-family="Times,serif" font-size="14.00">b1&#45;H</text>
</g>
<!-- GG&#45;&gt;GGG -->
<g id="edge13" class="edge">
<title>GG&#45;&gt;GGG</title>
<path fill="none" stroke="black" d="M123.19,-90.15C104.5,-76.1 75.41,-54.21 54.42,-38.42"/>
<polygon fill="black" stroke="black" points="56.35,-35.49 46.25,-32.28 52.14,-41.09 56.35,-35.49"/>
<text text-anchor="middle" x="97.1" y="-57.8" font-family="Times,serif" font-size="14.00">&gt;</text>
</g>
<!-- GGE -->
<g id="node15" class="node">
<title>GGE</title>
<ellipse fill="none" stroke="black" cx="103.6" cy="-18" rx="27.9" ry="18"/>
<text text-anchor="middle" x="103.6" y="-14.3" font-family="Times,serif" font-size="14.00">b8&#45;L</text>
</g>
<!-- GG&#45;&gt;GGE -->
<g id="edge14" class="edge">
<title>GG&#45;&gt;GGE</title>
<path fill="none" stroke="black" d="M134.09,-87.21C128.69,-75.14 121.32,-58.64 115.17,-44.89"/>
<polygon fill="black" stroke="black" points="118.24,-43.17 110.96,-35.47 111.85,-46.03 118.24,-43.17"/>
<text text-anchor="middle" x="130.1" y="-57.8" font-family="Times,serif" font-size="14.00">=</text>
</g>
<!-- GGL -->
<g id="node16" class="node">
<title>GGL</title>
<ellipse fill="none" stroke="black" cx="178.6" cy="-18" rx="28.7" ry="18"/>
<text text-anchor="middle" x="178.6" y="-14.3" font-family="Times,serif" font-size="14.00">b2&#45;H</text>
</g>
<!-- GG&#45;&gt;GGL -->
<g id="edge15" class="edge">
<title>GG&#45;&gt;GGL</title>
<path fill="none" stroke="black" d="M148.91,-87.21C154.16,-75.14 161.34,-58.64 167.33,-44.89"/>
<polygon fill="black" stroke="black" points="170.65,-46.04 171.43,-35.47 164.23,-43.24 170.65,-46.04"/>
<text text-anchor="middle" x="167.1" y="-57.8" font-family="Times,serif" font-size="14.00">&lt;</text>
</g>
<!-- GEG -->
<g id="node17" class="node">
<title>GEG</title>
<ellipse fill="none" stroke="black" cx="253.6" cy="-18" rx="27.9" ry="18"/>
<text text-anchor="middle" x="253.6" y="-14.3" font-family="Times,serif" font-size="14.00">b6&#45;L</text>
</g>
<!-- GE&#45;&gt;GEG -->
<g id="edge16" class="edge">
<title>GE&#45;&gt;GEG</title>
<path fill="none" stroke="black" d="M330.4,-89.19C315.55,-75.62 293.4,-55.38 276.7,-40.11"/>
<polygon fill="black" stroke="black" points="278.74,-37.23 268.99,-33.07 274.01,-42.4 278.74,-37.23"/>
<text text-anchor="middle" x="311.1" y="-57.8" font-family="Times,serif" font-size="14.00">&gt;</text>
</g>
<!-- GEE -->
<g id="node18" class="node">
<title>GEE</title>
<ellipse fill="none" stroke="black" cx="327.6" cy="-18" rx="27.9" ry="18"/>
<text text-anchor="middle" x="327.6" y="-14.3" font-family="Times,serif" font-size="14.00">b7&#45;L</text>
</g>
<!-- GE&#45;&gt;GEE -->
<g id="edge17" class="edge">
<title>GE&#45;&gt;GEE</title>
<path fill="none" stroke="black" d="M342.75,-86.8C340.13,-75.09 336.62,-59.34 333.63,-45.97"/>
<polygon fill="black" stroke="black" points="336.97,-44.88 331.37,-35.89 330.14,-46.41 336.97,-44.88"/>
<text text-anchor="middle" x="343.1" y="-57.8" font-family="Times,serif" font-size="14.00">=</text>
</g>
<!-- GEL -->
<g id="node19" class="node">
<title>GEL</title>
<ellipse fill="none" stroke="black" cx="401.6" cy="-18" rx="27.9" ry="18"/>
<text text-anchor="middle" x="401.6" y="-14.3" font-family="Times,serif" font-size="14.00">b5&#45;L</text>
</g>
<!-- GE&#45;&gt;GEL -->
<g id="edge18" class="edge">
<title>GE&#45;&gt;GEL</title>
<path fill="none" stroke="black" d="M357.2,-87.61C365.29,-75.11 376.57,-57.68 385.74,-43.51"/>
<polygon fill="black" stroke="black" points="388.9,-45.06 391.4,-34.76 383.03,-41.26 388.9,-45.06"/>
<text text-anchor="middle" x="382.1" y="-57.8" font-family="Times,serif" font-size="14.00">&lt;</text>
</g>
<!-- GLG -->
<g id="node20" class="node">
<title>GLG</title>
<ellipse fill="none" stroke="black" cx="476.6" cy="-18" rx="28.7" ry="18"/>
<text text-anchor="middle" x="476.6" y="-14.3" font-family="Times,serif" font-size="14.00">b3&#45;H</text>
</g>
<!-- GL&#45;&gt;GLG -->
<g id="edge19" class="edge">
<title>GL&#45;&gt;GLG</title>
<path fill="none" stroke="black" d="M507.09,-87.21C501.69,-75.14 494.32,-58.64 488.17,-44.89"/>
<polygon fill="black" stroke="black" points="491.24,-43.17 483.96,-35.47 484.85,-46.03 491.24,-43.17"/>
<text text-anchor="middle" x="503.1" y="-57.8" font-family="Times,serif" font-size="14.00">&gt;</text>
</g>
<!-- GLL -->
<g id="node21" class="node">
<title>GLL</title>
<ellipse fill="none" stroke="black" cx="551.6" cy="-18" rx="28.7" ry="18"/>
<text text-anchor="middle" x="551.6" y="-14.3" font-family="Times,serif" font-size="14.00">b4&#45;H</text>
</g>
<!-- GL&#45;&gt;GLL -->
<g id="edge21" class="edge">
<title>GL&#45;&gt;GLL</title>
<path fill="none" stroke="black" d="M521.91,-87.21C527.16,-75.14 534.34,-58.64 540.33,-44.89"/>
<polygon fill="black" stroke="black" points="543.65,-46.04 544.43,-35.47 537.23,-43.24 543.65,-46.04"/>
<text text-anchor="middle" x="540.1" y="-57.8" font-family="Times,serif" font-size="14.00">&lt;</text>
</g>
<!-- GLE -->
<g id="node38" class="node">
<title>GLE</title>
<ellipse fill="none" stroke="black" cx="626.6" cy="-18" rx="27.9" ry="18"/>
<text text-anchor="middle" x="626.6" y="-14.3" font-family="Times,serif" font-size="14.00">GLE</text>
</g>
<!-- GL&#45;&gt;GLE -->
<g id="edge20" class="edge">
<title>GL&#45;&gt;GLE</title>
<path fill="none" stroke="black" d="M533.09,-89.96C551.66,-75.87 580.4,-54.06 601.12,-38.33"/>
<polygon fill="black" stroke="black" points="603.33,-41.05 609.18,-32.22 599.1,-35.47 603.33,-41.05"/>
<text text-anchor="middle" x="582.1" y="-57.8" font-family="Times,serif" font-size="14.00">=</text>
</g>
<!-- EGG -->
<g id="node22" class="node">
<title>EGG</title>
<ellipse fill="none" stroke="black" cx="704.6" cy="-18" rx="32.49" ry="18"/>
<text text-anchor="middle" x="704.6" y="-14.3" font-family="Times,serif" font-size="14.00">b10&#45;L</text>
</g>
<!-- EG&#45;&gt;EGG -->
<g id="edge22" class="edge">
<title>EG&#45;&gt;EGG</title>
<path fill="none" stroke="black" d="M806.45,-89.96C786.26,-75.89 755.01,-54.12 732.45,-38.4"/>
<polygon fill="black" stroke="black" points="734.17,-35.34 723.97,-32.49 730.17,-41.08 734.17,-35.34"/>
<text text-anchor="middle" x="778.1" y="-57.8" font-family="Times,serif" font-size="14.00">&gt;</text>
</g>
<!-- EGE -->
<g id="node23" class="node">
<title>EGE</title>
<ellipse fill="none" stroke="black" cx="787.6" cy="-18" rx="32.49" ry="18"/>
<text text-anchor="middle" x="787.6" y="-14.3" font-family="Times,serif" font-size="14.00">b11&#45;L</text>
</g>
<!-- EG&#45;&gt;EGE -->
<g id="edge23" class="edge">
<title>EG&#45;&gt;EGE</title>
<path fill="none" stroke="black" d="M818.89,-87.21C813.39,-75.22 805.88,-58.85 799.6,-45.16"/>
<polygon fill="black" stroke="black" points="802.64,-43.39 795.29,-35.76 796.28,-46.31 802.64,-43.39"/>
<text text-anchor="middle" x="814.1" y="-57.8" font-family="Times,serif" font-size="14.00">=</text>
</g>
<!-- EGL -->
<g id="node24" class="node">
<title>EGL</title>
<ellipse fill="none" stroke="black" cx="865.6" cy="-18" rx="27.9" ry="18"/>
<text text-anchor="middle" x="865.6" y="-14.3" font-family="Times,serif" font-size="14.00">b9&#45;L</text>
</g>
<!-- EG&#45;&gt;EGL -->
<g id="edge24" class="edge">
<title>EG&#45;&gt;EGL</title>
<path fill="none" stroke="black" d="M834.3,-87.21C839.84,-75.14 847.41,-58.64 853.72,-44.89"/>
<polygon fill="black" stroke="black" points="857.05,-46.02 858.04,-35.47 850.69,-43.1 857.05,-46.02"/>
<text text-anchor="middle" x="853.1" y="-57.8" font-family="Times,serif" font-size="14.00">&lt;</text>
</g>
<!-- EEG -->
<g id="node25" class="node">
<title>EEG</title>
<ellipse fill="none" stroke="black" cx="943.6" cy="-18" rx="32.49" ry="18"/>
<text text-anchor="middle" x="943.6" y="-14.3" font-family="Times,serif" font-size="14.00">b12&#45;L</text>
</g>
<!-- EE&#45;&gt;EEG -->
<g id="edge25" class="edge">
<title>EE&#45;&gt;EEG</title>
<path fill="none" stroke="black" d="M1012.19,-88.41C999.2,-75.27 980.45,-56.29 965.84,-41.5"/>
<polygon fill="black" stroke="black" points="968.14,-38.86 958.62,-34.21 963.16,-43.78 968.14,-38.86"/>
<text text-anchor="middle" x="996.1" y="-57.8" font-family="Times,serif" font-size="14.00">&gt;</text>
</g>
<!-- EEL -->
<g id="node26" class="node">
<title>EEL</title>
<ellipse fill="none" stroke="black" cx="1027.6" cy="-18" rx="33.29" ry="18"/>
<text text-anchor="middle" x="1027.6" y="-14.3" font-family="Times,serif" font-size="14.00">b12&#45;H</text>
</g>
<!-- EE&#45;&gt;EEL -->
<g id="edge27" class="edge">
<title>EE&#45;&gt;EEL</title>
<path fill="none" stroke="black" d="M1027.6,-86.8C1027.6,-75.16 1027.6,-59.55 1027.6,-46.24"/>
<polygon fill="black" stroke="black" points="1031.1,-46.18 1027.6,-36.18 1024.1,-46.18 1031.1,-46.18"/>
<text text-anchor="middle" x="1032.1" y="-57.8" font-family="Times,serif" font-size="14.00">&lt;</text>
</g>
<!-- EEE -->
<g id="node39" class="node">
<title>EEE</title>
<ellipse fill="none" stroke="black" cx="1105.6" cy="-18" rx="27" ry="18"/>
<text text-anchor="middle" x="1105.6" y="-14.3" font-family="Times,serif" font-size="14.00">EEE</text>
</g>
<!-- EE&#45;&gt;EEE -->
<g id="edge26" class="edge">
<title>EE&#45;&gt;EEE</title>
<path fill="none" stroke="black" d="M1041.9,-88.41C1054,-75.23 1071.48,-56.18 1085.07,-41.37"/>
<polygon fill="black" stroke="black" points="1087.98,-43.37 1092.16,-33.64 1082.82,-38.64 1087.98,-43.37"/>
<text text-anchor="middle" x="1076.1" y="-57.8" font-family="Times,serif" font-size="14.00">=</text>
</g>
<!-- ELG -->
<g id="node27" class="node">
<title>ELG</title>
<ellipse fill="none" stroke="black" cx="1179.6" cy="-18" rx="28.7" ry="18"/>
<text text-anchor="middle" x="1179.6" y="-14.3" font-family="Times,serif" font-size="14.00">b9&#45;H</text>
</g>
<!-- EL&#45;&gt;ELG -->
<g id="edge28" class="edge">
<title>EL&#45;&gt;ELG</title>
<path fill="none" stroke="black" d="M1211.69,-87.21C1206.02,-75.14 1198.25,-58.64 1191.78,-44.89"/>
<polygon fill="black" stroke="black" points="1194.77,-43.03 1187.35,-35.47 1188.44,-46.01 1194.77,-43.03"/>
<text text-anchor="middle" x="1207.1" y="-57.8" font-family="Times,serif" font-size="14.00">&gt;</text>
</g>
<!-- ELE -->
<g id="node28" class="node">
<title>ELE</title>
<ellipse fill="none" stroke="black" cx="1259.6" cy="-18" rx="33.29" ry="18"/>
<text text-anchor="middle" x="1259.6" y="-14.3" font-family="Times,serif" font-size="14.00">b11&#45;H</text>
</g>
<!-- EL&#45;&gt;ELE -->
<g id="edge29" class="edge">
<title>EL&#45;&gt;ELE</title>
<path fill="none" stroke="black" d="M1227.5,-87.21C1233.14,-75.22 1240.84,-58.85 1247.29,-45.16"/>
<polygon fill="black" stroke="black" points="1250.62,-46.3 1251.71,-35.76 1244.29,-43.32 1250.62,-46.3"/>
<text text-anchor="middle" x="1247.1" y="-57.8" font-family="Times,serif" font-size="14.00">=</text>
</g>
<!-- ELL -->
<g id="node29" class="node">
<title>ELL</title>
<ellipse fill="none" stroke="black" cx="1343.6" cy="-18" rx="33.29" ry="18"/>
<text text-anchor="middle" x="1343.6" y="-14.3" font-family="Times,serif" font-size="14.00">b10&#45;H</text>
</g>
<!-- EL&#45;&gt;ELL -->
<g id="edge30" class="edge">
<title>EL&#45;&gt;ELL</title>
<path fill="none" stroke="black" d="M1240.07,-89.96C1260.69,-75.83 1292.64,-53.93 1315.6,-38.19"/>
<polygon fill="black" stroke="black" points="1317.64,-41.04 1323.91,-32.49 1313.68,-35.26 1317.64,-41.04"/>
<text text-anchor="middle" x="1294.1" y="-57.8" font-family="Times,serif" font-size="14.00">&lt;</text>
</g>
<!-- LGG -->
<g id="node30" class="node">
<title>LGG</title>
<ellipse fill="none" stroke="black" cx="1423.6" cy="-18" rx="28.7" ry="18"/>
<text text-anchor="middle" x="1423.6" y="-14.3" font-family="Times,serif" font-size="14.00">b5&#45;H</text>
</g>
<!-- LG&#45;&gt;LGG -->
<g id="edge31" class="edge">
<title>LG&#45;&gt;LGG</title>
<path fill="none" stroke="black" d="M1505.8,-89.58C1489.83,-75.86 1465.62,-55.08 1447.6,-39.61"/>
<polygon fill="black" stroke="black" points="1449.68,-36.78 1439.82,-32.92 1445.12,-42.09 1449.68,-36.78"/>
<text text-anchor="middle" x="1484.1" y="-57.8" font-family="Times,serif" font-size="14.00">&gt;</text>
</g>
<!-- LGE -->
<g id="node31" class="node">
<title>LGE</title>
<ellipse fill="none" stroke="black" cx="1498.6" cy="-18" rx="27.9" ry="18"/>
<text text-anchor="middle" x="1498.6" y="-14.3" font-family="Times,serif" font-size="14.00">b4&#45;L</text>
</g>
<!-- LG&#45;&gt;LGE -->
<g id="edge32" class="edge">
<title>LG&#45;&gt;LGE</title>
<path fill="none" stroke="black" d="M1517.74,-86.8C1514.4,-74.97 1509.9,-59.03 1506.1,-45.58"/>
<polygon fill="black" stroke="black" points="1509.45,-44.56 1503.37,-35.89 1502.71,-46.46 1509.45,-44.56"/>
<text text-anchor="middle" x="1517.1" y="-57.8" font-family="Times,serif" font-size="14.00">=</text>
</g>
<!-- LGL -->
<g id="node32" class="node">
<title>LGL</title>
<ellipse fill="none" stroke="black" cx="1573.6" cy="-18" rx="28.7" ry="18"/>
<text text-anchor="middle" x="1573.6" y="-14.3" font-family="Times,serif" font-size="14.00">b6&#45;H</text>
</g>
<!-- LG&#45;&gt;LGL -->
<g id="edge33" class="edge">
<title>LG&#45;&gt;LGL</title>
<path fill="none" stroke="black" d="M1532.43,-87.61C1539.89,-75.19 1550.26,-57.9 1558.73,-43.78"/>
<polygon fill="black" stroke="black" points="1561.82,-45.43 1563.97,-35.05 1555.82,-41.82 1561.82,-45.43"/>
<text text-anchor="middle" x="1556.1" y="-57.8" font-family="Times,serif" font-size="14.00">&lt;</text>
</g>
<!-- LEG -->
<g id="node33" class="node">
<title>LEG</title>
<ellipse fill="none" stroke="black" cx="1648.6" cy="-18" rx="27.9" ry="18"/>
<text text-anchor="middle" x="1648.6" y="-14.3" font-family="Times,serif" font-size="14.00">b2&#45;L</text>
</g>
<!-- LE&#45;&gt;LEG -->
<g id="edge34" class="edge">
<title>LE&#45;&gt;LEG</title>
<path fill="none" stroke="black" d="M1698.94,-88.01C1689.7,-75.35 1676.65,-57.45 1666.15,-43.06"/>
<polygon fill="black" stroke="black" points="1668.72,-40.65 1660,-34.63 1663.06,-44.77 1668.72,-40.65"/>
<text text-anchor="middle" x="1688.1" y="-57.8" font-family="Times,serif" font-size="14.00">&gt;</text>
</g>
<!-- LEE -->
<g id="node34" class="node">
<title>LEE</title>
<ellipse fill="none" stroke="black" cx="1722.6" cy="-18" rx="27.9" ry="18"/>
<text text-anchor="middle" x="1722.6" y="-14.3" font-family="Times,serif" font-size="14.00">b3&#45;L</text>
</g>
<!-- LE&#45;&gt;LEE -->
<g id="edge35" class="edge">
<title>LE&#45;&gt;LEE</title>
<path fill="none" stroke="black" d="M1713.03,-86.8C1714.67,-75.16 1716.87,-59.55 1718.75,-46.24"/>
<polygon fill="black" stroke="black" points="1722.24,-46.57 1720.17,-36.18 1715.31,-45.59 1722.24,-46.57"/>
<text text-anchor="middle" x="1722.1" y="-57.8" font-family="Times,serif" font-size="14.00">=</text>
</g>
<!-- LEL -->
<g id="node35" class="node">
<title>LEL</title>
<ellipse fill="none" stroke="black" cx="1796.6" cy="-18" rx="27.9" ry="18"/>
<text text-anchor="middle" x="1796.6" y="-14.3" font-family="Times,serif" font-size="14.00">b1&#45;L</text>
</g>
<!-- LE&#45;&gt;LEL -->
<g id="edge36" class="edge">
<title>LE&#45;&gt;LEL</title>
<path fill="none" stroke="black" d="M1725.97,-88.8C1739.47,-75.47 1759.26,-55.91 1774.46,-40.88"/>
<polygon fill="black" stroke="black" points="1777.28,-43.02 1781.93,-33.5 1772.36,-38.04 1777.28,-43.02"/>
<text text-anchor="middle" x="1764.1" y="-57.8" font-family="Times,serif" font-size="14.00">&lt;</text>
</g>
<!-- LLG -->
<g id="node36" class="node">
<title>LLG</title>
<ellipse fill="none" stroke="black" cx="1871.6" cy="-18" rx="28.7" ry="18"/>
<text text-anchor="middle" x="1871.6" y="-14.3" font-family="Times,serif" font-size="14.00">b7&#45;H</text>
</g>
<!-- LL&#45;&gt;LLG -->
<g id="edge37" class="edge">
<title>LL&#45;&gt;LLG</title>
<path fill="none" stroke="black" d="M1901.29,-87.21C1896.03,-75.14 1888.85,-58.64 1882.87,-44.89"/>
<polygon fill="black" stroke="black" points="1885.97,-43.24 1878.77,-35.47 1879.55,-46.04 1885.97,-43.24"/>
<text text-anchor="middle" x="1897.1" y="-57.8" font-family="Times,serif" font-size="14.00">&gt;</text>
</g>
<!-- LLL -->
<g id="node37" class="node">
<title>LLL</title>
<ellipse fill="none" stroke="black" cx="1946.6" cy="-18" rx="28.7" ry="18"/>
<text text-anchor="middle" x="1946.6" y="-14.3" font-family="Times,serif" font-size="14.00">b8&#45;H</text>
</g>
<!-- LL&#45;&gt;LLL -->
<g id="edge39" class="edge">
<title>LL&#45;&gt;LLL</title>
<path fill="none" stroke="black" d="M1916.11,-87.21C1921.5,-75.14 1928.88,-58.64 1935.02,-44.89"/>
<polygon fill="black" stroke="black" points="1938.35,-46.03 1939.23,-35.47 1931.96,-43.17 1938.35,-46.03"/>
<text text-anchor="middle" x="1935.1" y="-57.8" font-family="Times,serif" font-size="14.00">&lt;</text>
</g>
<!-- LLE -->
<g id="node40" class="node">
<title>LLE</title>
<ellipse fill="none" stroke="black" cx="2020.6" cy="-18" rx="27" ry="18"/>
<text text-anchor="middle" x="2020.6" y="-14.3" font-family="Times,serif" font-size="14.00">LLE</text>
</g>
<!-- LL&#45;&gt;LLE -->
<g id="edge38" class="edge">
<title>LL&#45;&gt;LLE</title>
<path fill="none" stroke="black" d="M1927.09,-89.96C1945.66,-75.87 1974.4,-54.06 1995.12,-38.33"/>
<polygon fill="black" stroke="black" points="1997.33,-41.05 2003.18,-32.22 1993.1,-35.47 1997.33,-41.05"/>
<text text-anchor="middle" x="1976.1" y="-57.8" font-family="Times,serif" font-size="14.00">=</text>
</g>
</g>
</svg>
