<?xml version="1.0" encoding="UTF-8" standalone="no"?>
<!DOCTYPE svg PUBLIC "-//W3C//DTD SVG 1.1//EN"
 "http://www.w3.org/Graphics/SVG/1.1/DTD/svg11.dtd">
<!-- Generated by graphviz version 2.42.3 (0)
 -->
<!-- Title: %3 Pages: 1 -->
<svg width="769pt" height="520pt"
 viewBox="0.00 0.00 769.29 519.74" xmlns="http://www.w3.org/2000/svg" xmlns:xlink="http://www.w3.org/1999/xlink">
<g id="graph0" class="graph" transform="scale(1 1) rotate(0) translate(4 515.74)">
<title>%3</title>
<polygon fill="white" stroke="transparent" points="-4,4 -4,-515.74 765.29,-515.74 765.29,4 -4,4"/>
<!-- func -->
<g id="node1" class="node">
<title>func</title>
<ellipse fill="none" stroke="black" cx="327.29" cy="-493.74" rx="151.37" ry="18"/>
<text text-anchor="middle" x="327.29" y="-490.04" font-family="Times,serif" font-size="14.00">erase the node with value in the subtree</text>
</g>
<!-- none -->
<g id="node2" class="node">
<title>none</title>
<ellipse fill="none" stroke="black" cx="66.29" cy="-376.74" rx="66.09" ry="18"/>
<text text-anchor="middle" x="66.29" y="-373.04" font-family="Times,serif" font-size="14.00">return this node</text>
</g>
<!-- func&#45;&gt;none -->
<g id="edge4" class="edge">
<title>func&#45;&gt;none</title>
<path fill="none" stroke="black" d="M237.45,-479.22C215.53,-474.1 192.57,-467.14 172.29,-457.74 141.46,-443.44 110.98,-419.08 90.68,-400.98"/>
<polygon fill="black" stroke="black" points="92.91,-398.28 83.16,-394.15 88.21,-403.46 92.91,-398.28"/>
<text text-anchor="middle" x="187.79" y="-446.54" font-family="Times,serif" font-size="14.00">node </text>
<text text-anchor="middle" x="187.79" y="-431.54" font-family="Times,serif" font-size="14.00">==</text>
<text text-anchor="middle" x="187.79" y="-416.54" font-family="Times,serif" font-size="14.00"> none</text>
</g>
<!-- left -->
<g id="node3" class="node">
<title>left</title>
<ellipse fill="none" stroke="black" cx="215.29" cy="-376.74" rx="64.19" ry="18"/>
<text text-anchor="middle" x="215.29" y="-373.04" font-family="Times,serif" font-size="14.00">erase in leftson</text>
</g>
<!-- func&#45;&gt;left -->
<g id="edge1" class="edge">
<title>func&#45;&gt;left</title>
<path fill="none" stroke="black" d="M242.53,-478.8C232.31,-473.73 223.1,-466.9 216.29,-457.74 205.18,-442.78 205.44,-421.53 208.21,-404.69"/>
<polygon fill="black" stroke="black" points="211.64,-405.36 210.17,-394.87 204.78,-403.99 211.64,-405.36"/>
<text text-anchor="middle" x="248.29" y="-446.54" font-family="Times,serif" font-size="14.00">value </text>
<text text-anchor="middle" x="248.29" y="-431.54" font-family="Times,serif" font-size="14.00">&lt;</text>
<text text-anchor="middle" x="248.29" y="-416.54" font-family="Times,serif" font-size="14.00"> node.value</text>
</g>
<!-- right -->
<g id="node4" class="node">
<title>right</title>
<ellipse fill="none" stroke="black" cx="367.29" cy="-376.74" rx="69.59" ry="18"/>
<text text-anchor="middle" x="367.29" y="-373.04" font-family="Times,serif" font-size="14.00">erase in rightson</text>
</g>
<!-- func&#45;&gt;right -->
<g id="edge2" class="edge">
<title>func&#45;&gt;right</title>
<path fill="none" stroke="black" d="M323.69,-475.65C320.99,-458.84 319.17,-432.85 328.29,-412.74 330.21,-408.53 332.9,-404.6 335.99,-401.02"/>
<polygon fill="black" stroke="black" points="338.65,-403.31 343.22,-393.76 333.69,-398.37 338.65,-403.31"/>
<text text-anchor="middle" x="360.29" y="-446.54" font-family="Times,serif" font-size="14.00">value </text>
<text text-anchor="middle" x="360.29" y="-431.54" font-family="Times,serif" font-size="14.00">&gt;</text>
<text text-anchor="middle" x="360.29" y="-416.54" font-family="Times,serif" font-size="14.00"> node.value</text>
</g>
<!-- found -->
<g id="node5" class="node">
<title>found</title>
<ellipse fill="none" stroke="black" cx="585.29" cy="-376.74" rx="129.98" ry="18"/>
<text text-anchor="middle" x="585.29" y="-373.04" font-family="Times,serif" font-size="14.00">leftson or rightson equal to none?</text>
</g>
<!-- func&#45;&gt;found -->
<g id="edge3" class="edge">
<title>func&#45;&gt;found</title>
<path fill="none" stroke="black" d="M366.58,-476.19C380.14,-470.42 395.41,-463.86 409.29,-457.74 454.27,-437.93 505.37,-414.61 540.88,-398.27"/>
<polygon fill="black" stroke="black" points="542.39,-401.43 550.01,-394.07 539.46,-395.07 542.39,-401.43"/>
<text text-anchor="middle" x="536.29" y="-446.54" font-family="Times,serif" font-size="14.00">value </text>
<text text-anchor="middle" x="536.29" y="-431.54" font-family="Times,serif" font-size="14.00">==</text>
<text text-anchor="middle" x="536.29" y="-416.54" font-family="Times,serif" font-size="14.00"> node.value</text>
</g>
<!-- left&#45;&gt;func -->
<g id="edge5" class="edge">
<title>left&#45;&gt;func</title>
<path fill="none" stroke="black" stroke-dasharray="1,5" d="M250.02,-392.01C260.55,-397.44 271.62,-404.38 280.29,-412.74 296,-427.88 308.24,-449.38 316.29,-466.29"/>
<polygon fill="black" stroke="black" points="313.21,-467.97 320.54,-475.63 319.58,-465.07 313.21,-467.97"/>
</g>
<!-- rebalance -->
<g id="node10" class="node">
<title>rebalance</title>
<ellipse fill="none" stroke="black" cx="329.29" cy="-18" rx="63.89" ry="18"/>
<text text-anchor="middle" x="329.29" y="-14.3" font-family="Times,serif" font-size="14.00">rebalance node</text>
</g>
<!-- left&#45;&gt;rebalance -->
<g id="edge14" class="edge">
<title>left&#45;&gt;rebalance</title>
<path fill="none" stroke="black" d="M218.83,-358.52C222.37,-339.76 227.29,-308.81 227.29,-281.87 227.29,-281.87 227.29,-281.87 227.29,-90 227.29,-63.31 251.11,-45.84 275.72,-34.9"/>
<polygon fill="black" stroke="black" points="277.23,-38.07 285.15,-31.03 274.57,-31.59 277.23,-38.07"/>
</g>
<!-- right&#45;&gt;func -->
<g id="edge6" class="edge">
<title>right&#45;&gt;func</title>
<path fill="none" stroke="black" stroke-dasharray="1,5" d="M382.35,-394.37C386.38,-399.84 390.2,-406.2 392.29,-412.74 398.4,-431.79 402.55,-440.57 392.29,-457.74 389.38,-462.62 385.52,-466.86 381.13,-470.54"/>
<polygon fill="black" stroke="black" points="378.83,-467.88 372.76,-476.56 382.92,-473.57 378.83,-467.88"/>
</g>
<!-- right&#45;&gt;rebalance -->
<g id="edge15" class="edge">
<title>right&#45;&gt;rebalance</title>
<path fill="none" stroke="black" d="M341.43,-359.8C318.39,-343.39 288.29,-315.52 288.29,-281.87 288.29,-281.87 288.29,-281.87 288.29,-90 288.29,-72.95 297.27,-56.32 306.82,-43.44"/>
<polygon fill="black" stroke="black" points="309.61,-45.56 313.09,-35.55 304.13,-41.2 309.61,-45.56"/>
</g>
<!-- swap1 -->
<g id="node6" class="node">
<title>swap1</title>
<ellipse fill="none" stroke="black" cx="431.29" cy="-218" rx="128.08" ry="18"/>
<text text-anchor="middle" x="431.29" y="-214.3" font-family="Times,serif" font-size="14.00">swap the node with the other son</text>
</g>
<!-- found&#45;&gt;swap1 -->
<g id="edge8" class="edge">
<title>found&#45;&gt;swap1</title>
<path fill="none" stroke="black" d="M509.89,-361.93C479.18,-352.19 446.64,-335.67 428.29,-307.74 416.44,-289.69 418.46,-264.83 422.71,-246.01"/>
<polygon fill="black" stroke="black" points="426.12,-246.82 425.23,-236.26 419.34,-245.07 426.12,-246.82"/>
<text text-anchor="middle" x="470.79" y="-329.54" font-family="Times,serif" font-size="14.00">Yes</text>
</g>
<!-- swap2 -->
<g id="node7" class="node">
<title>swap2</title>
<ellipse fill="none" stroke="black" cx="585.29" cy="-280.87" rx="147.57" ry="26.74"/>
<text text-anchor="middle" x="585.29" y="-284.67" font-family="Times,serif" font-size="14.00">find the prev of node in the subtree</text>
<text text-anchor="middle" x="585.29" y="-269.67" font-family="Times,serif" font-size="14.00">(the rightson must be none)</text>
</g>
<!-- found&#45;&gt;swap2 -->
<g id="edge9" class="edge">
<title>found&#45;&gt;swap2</title>
<path fill="none" stroke="black" d="M585.29,-358.52C585.29,-347.22 585.29,-332.01 585.29,-318.12"/>
<polygon fill="black" stroke="black" points="588.79,-317.84 585.29,-307.84 581.79,-317.84 588.79,-317.84"/>
<text text-anchor="middle" x="593.79" y="-329.54" font-family="Times,serif" font-size="14.00">No</text>
</g>
<!-- swap1&#45;&gt;rebalance -->
<g id="edge12" class="edge">
<title>swap1&#45;&gt;rebalance</title>
<path fill="none" stroke="black" d="M422.42,-199.78C404.52,-165.02 363.97,-86.32 342.78,-45.17"/>
<polygon fill="black" stroke="black" points="345.77,-43.33 338.07,-36.04 339.54,-46.54 345.77,-43.33"/>
</g>
<!-- assign -->
<g id="node8" class="node">
<title>assign</title>
<ellipse fill="none" stroke="black" cx="585.29" cy="-164" rx="141.88" ry="18"/>
<text text-anchor="middle" x="585.29" y="-160.3" font-family="Times,serif" font-size="14.00">set the node&#39;s value with prev&#39;s value</text>
</g>
<!-- swap2&#45;&gt;assign -->
<g id="edge10" class="edge">
<title>swap2&#45;&gt;assign</title>
<path fill="none" stroke="black" d="M585.29,-253.8C585.29,-235.43 585.29,-210.89 585.29,-192.26"/>
<polygon fill="black" stroke="black" points="588.79,-192.06 585.29,-182.06 581.79,-192.06 588.79,-192.06"/>
</g>
<!-- erase -->
<g id="node9" class="node">
<title>erase</title>
<ellipse fill="none" stroke="black" cx="585.29" cy="-91" rx="79.09" ry="18"/>
<text text-anchor="middle" x="585.29" y="-87.3" font-family="Times,serif" font-size="14.00">erase the prev node</text>
</g>
<!-- assign&#45;&gt;erase -->
<g id="edge11" class="edge">
<title>assign&#45;&gt;erase</title>
<path fill="none" stroke="black" d="M585.29,-145.81C585.29,-137.79 585.29,-128.05 585.29,-119.07"/>
<polygon fill="black" stroke="black" points="588.79,-119.03 585.29,-109.03 581.79,-119.03 588.79,-119.03"/>
</g>
<!-- erase&#45;&gt;func -->
<g id="edge7" class="edge">
<title>erase&#45;&gt;func</title>
<path fill="none" stroke="black" stroke-dasharray="1,5" d="M663.26,-94.4C710.34,-100.51 761.29,-117.61 761.29,-163 761.29,-377.74 761.29,-377.74 761.29,-377.74 761.29,-440.21 591.16,-469.53 463.94,-482.73"/>
<polygon fill="black" stroke="black" points="463.3,-479.28 453.7,-483.77 464,-486.24 463.3,-479.28"/>
</g>
<!-- erase&#45;&gt;rebalance -->
<g id="edge13" class="edge">
<title>erase&#45;&gt;rebalance</title>
<path fill="none" stroke="black" d="M537.14,-76.65C493.15,-64.45 428.21,-46.44 382.66,-33.8"/>
<polygon fill="black" stroke="black" points="383.53,-30.41 372.96,-31.11 381.66,-37.16 383.53,-30.41"/>
</g>
</g>
</svg>
