<?xml version="1.0" encoding="UTF-8" standalone="no"?>
<!DOCTYPE svg PUBLIC "-//W3C//DTD SVG 1.1//EN"
 "http://www.w3.org/Graphics/SVG/1.1/DTD/svg11.dtd">
<!-- Generated by graphviz version 2.42.3 (0)
 -->
<!-- Title: %3 Pages: 1 -->
<svg width="512pt" height="161pt"
 viewBox="0.00 0.00 511.79 161.00" xmlns="http://www.w3.org/2000/svg" xmlns:xlink="http://www.w3.org/1999/xlink">
<g id="graph0" class="graph" transform="scale(1 1) rotate(0) translate(4 157)">
<title>%3</title>
<polygon fill="white" stroke="transparent" points="-4,4 -4,-157 507.79,-157 507.79,4 -4,4"/>
<!-- func -->
<g id="node1" class="node">
<title>func</title>
<ellipse fill="none" stroke="black" cx="250.7" cy="-135" rx="53.89" ry="18"/>
<text text-anchor="middle" x="250.7" y="-131.3" font-family="Times,serif" font-size="14.00">find in node</text>
</g>
<!-- none -->
<g id="node2" class="node">
<title>none</title>
<ellipse fill="none" stroke="black" cx="50.7" cy="-18" rx="50.89" ry="18"/>
<text text-anchor="middle" x="50.7" y="-14.3" font-family="Times,serif" font-size="14.00">return false</text>
</g>
<!-- func&#45;&gt;none -->
<g id="edge4" class="edge">
<title>func&#45;&gt;none</title>
<path fill="none" stroke="black" d="M200.18,-128.62C173.42,-123.95 140.95,-115.23 115.7,-99 94.41,-85.33 76.82,-62.36 65.32,-44.53"/>
<polygon fill="black" stroke="black" points="68.12,-42.41 59.88,-35.76 62.17,-46.1 68.12,-42.41"/>
<text text-anchor="middle" x="131.2" y="-87.8" font-family="Times,serif" font-size="14.00">node </text>
<text text-anchor="middle" x="131.2" y="-72.8" font-family="Times,serif" font-size="14.00">==</text>
<text text-anchor="middle" x="131.2" y="-57.8" font-family="Times,serif" font-size="14.00"> none</text>
</g>
<!-- left -->
<g id="node3" class="node">
<title>left</title>
<ellipse fill="none" stroke="black" cx="179.7" cy="-18" rx="60.39" ry="18"/>
<text text-anchor="middle" x="179.7" y="-14.3" font-family="Times,serif" font-size="14.00">find in leftson</text>
</g>
<!-- func&#45;&gt;left -->
<g id="edge1" class="edge">
<title>func&#45;&gt;left</title>
<path fill="none" stroke="black" d="M201.56,-127.37C184.48,-122.44 167.03,-113.87 156.7,-99 145.28,-82.57 150.96,-73.16 156.7,-54 157.65,-50.8 159.01,-47.61 160.59,-44.55"/>
<polygon fill="black" stroke="black" points="163.7,-46.18 165.83,-35.8 157.69,-42.58 163.7,-46.18"/>
<text text-anchor="middle" x="188.7" y="-87.8" font-family="Times,serif" font-size="14.00">value </text>
<text text-anchor="middle" x="188.7" y="-72.8" font-family="Times,serif" font-size="14.00">&lt;</text>
<text text-anchor="middle" x="188.7" y="-57.8" font-family="Times,serif" font-size="14.00"> node.value</text>
</g>
<!-- right -->
<g id="node4" class="node">
<title>right</title>
<ellipse fill="none" stroke="black" cx="323.7" cy="-18" rx="65.79" ry="18"/>
<text text-anchor="middle" x="323.7" y="-14.3" font-family="Times,serif" font-size="14.00">find in rightson</text>
</g>
<!-- func&#45;&gt;right -->
<g id="edge2" class="edge">
<title>func&#45;&gt;right</title>
<path fill="none" stroke="black" d="M250.85,-116.87C251.79,-99.56 255.51,-72.75 268.7,-54 272.59,-48.46 277.66,-43.6 283.15,-39.41"/>
<polygon fill="black" stroke="black" points="285.15,-42.28 291.41,-33.73 281.19,-36.51 285.15,-42.28"/>
<text text-anchor="middle" x="300.7" y="-87.8" font-family="Times,serif" font-size="14.00">value </text>
<text text-anchor="middle" x="300.7" y="-72.8" font-family="Times,serif" font-size="14.00">&gt;</text>
<text text-anchor="middle" x="300.7" y="-57.8" font-family="Times,serif" font-size="14.00"> node.value</text>
</g>
<!-- found -->
<g id="node5" class="node">
<title>found</title>
<ellipse fill="none" stroke="black" cx="455.7" cy="-18" rx="48.19" ry="18"/>
<text text-anchor="middle" x="455.7" y="-14.3" font-family="Times,serif" font-size="14.00">return true</text>
</g>
<!-- func&#45;&gt;found -->
<g id="edge3" class="edge">
<title>func&#45;&gt;found</title>
<path fill="none" stroke="black" d="M291.34,-122.97C310,-117.11 332.07,-109.03 350.7,-99 380.27,-83.08 410.39,-59.17 430.74,-41.64"/>
<polygon fill="black" stroke="black" points="433.08,-44.24 438.31,-35.02 428.48,-38.97 433.08,-44.24"/>
<text text-anchor="middle" x="447.7" y="-87.8" font-family="Times,serif" font-size="14.00">value </text>
<text text-anchor="middle" x="447.7" y="-72.8" font-family="Times,serif" font-size="14.00">==</text>
<text text-anchor="middle" x="447.7" y="-57.8" font-family="Times,serif" font-size="14.00"> node.value</text>
</g>
<!-- left&#45;&gt;func -->
<g id="edge5" class="edge">
<title>left&#45;&gt;func</title>
<path fill="none" stroke="black" stroke-dasharray="1,5" d="M202.53,-35.01C209.07,-40.45 215.75,-46.95 220.7,-54 231.87,-69.94 239.47,-90.56 244.23,-106.88"/>
<polygon fill="black" stroke="black" points="240.95,-108.16 246.95,-116.89 247.7,-106.32 240.95,-108.16"/>
</g>
<!-- right&#45;&gt;func -->
<g id="edge6" class="edge">
<title>right&#45;&gt;func</title>
<path fill="none" stroke="black" stroke-dasharray="1,5" d="M331.62,-36.12C338.34,-53.42 345.1,-80.22 332.7,-99 326.1,-108.99 316,-116.14 305.12,-121.25"/>
<polygon fill="black" stroke="black" points="303.76,-118.02 295.86,-125.08 306.44,-124.49 303.76,-118.02"/>
</g>
</g>
</svg>
