<?xml version="1.0" encoding="UTF-8" standalone="no"?>
<!DOCTYPE svg PUBLIC "-//W3C//DTD SVG 1.1//EN"
 "http://www.w3.org/Graphics/SVG/1.1/DTD/svg11.dtd">
<!-- Generated by graphviz version 2.42.3 (0)
 -->
<!-- Title: %3 Pages: 1 -->
<svg width="711pt" height="234pt"
 viewBox="0.00 0.00 711.18 234.00" xmlns="http://www.w3.org/2000/svg" xmlns:xlink="http://www.w3.org/1999/xlink">
<g id="graph0" class="graph" transform="scale(1 1) rotate(0) translate(4 230)">
<title>%3</title>
<polygon fill="white" stroke="transparent" points="-4,4 -4,-230 707.18,-230 707.18,4 -4,4"/>
<!-- func -->
<g id="node1" class="node">
<title>func</title>
<ellipse fill="none" stroke="black" cx="389.89" cy="-208" rx="137.58" ry="18"/>
<text text-anchor="middle" x="389.89" y="-204.3" font-family="Times,serif" font-size="14.00">insert value into the subtree of node</text>
</g>
<!-- none -->
<g id="node2" class="node">
<title>none</title>
<ellipse fill="none" stroke="black" cx="107.89" cy="-91" rx="107.78" ry="18"/>
<text text-anchor="middle" x="107.89" y="-87.3" font-family="Times,serif" font-size="14.00">return new node with value</text>
</g>
<!-- func&#45;&gt;none -->
<g id="edge4" class="edge">
<title>func&#45;&gt;none</title>
<path fill="none" stroke="black" d="M320.17,-192.38C298.87,-187 275.61,-180.18 254.89,-172 214.6,-156.09 171.39,-131.58 142.32,-113.88"/>
<polygon fill="black" stroke="black" points="144.12,-110.88 133.77,-108.63 140.45,-116.85 144.12,-110.88"/>
<text text-anchor="middle" x="270.39" y="-160.8" font-family="Times,serif" font-size="14.00">node </text>
<text text-anchor="middle" x="270.39" y="-145.8" font-family="Times,serif" font-size="14.00">==</text>
<text text-anchor="middle" x="270.39" y="-130.8" font-family="Times,serif" font-size="14.00"> none</text>
</g>
<!-- left -->
<g id="node3" class="node">
<title>left</title>
<ellipse fill="none" stroke="black" cx="306.89" cy="-91" rx="72.59" ry="18"/>
<text text-anchor="middle" x="306.89" y="-87.3" font-family="Times,serif" font-size="14.00">insert into leftson</text>
</g>
<!-- func&#45;&gt;left -->
<g id="edge1" class="edge">
<title>func&#45;&gt;left</title>
<path fill="none" stroke="black" d="M320.37,-192.44C310.74,-187.49 302.05,-180.87 295.89,-172 285.16,-156.55 288.7,-135.33 294.49,-118.62"/>
<polygon fill="black" stroke="black" points="297.91,-119.48 298.29,-108.89 291.39,-116.94 297.91,-119.48"/>
<text text-anchor="middle" x="327.89" y="-160.8" font-family="Times,serif" font-size="14.00">value </text>
<text text-anchor="middle" x="327.89" y="-145.8" font-family="Times,serif" font-size="14.00">&lt;</text>
<text text-anchor="middle" x="327.89" y="-130.8" font-family="Times,serif" font-size="14.00"> node.value</text>
</g>
<!-- right -->
<g id="node4" class="node">
<title>right</title>
<ellipse fill="none" stroke="black" cx="474.89" cy="-91" rx="77.19" ry="18"/>
<text text-anchor="middle" x="474.89" y="-87.3" font-family="Times,serif" font-size="14.00">insert into rightson</text>
</g>
<!-- func&#45;&gt;right -->
<g id="edge2" class="edge">
<title>func&#45;&gt;right</title>
<path fill="none" stroke="black" d="M389.7,-189.96C390.36,-172.46 393.84,-145.28 407.89,-127 412.51,-120.99 418.45,-115.91 424.89,-111.65"/>
<polygon fill="black" stroke="black" points="427.06,-114.43 433.9,-106.33 423.51,-108.4 427.06,-114.43"/>
<text text-anchor="middle" x="439.89" y="-160.8" font-family="Times,serif" font-size="14.00">value </text>
<text text-anchor="middle" x="439.89" y="-145.8" font-family="Times,serif" font-size="14.00">&gt;</text>
<text text-anchor="middle" x="439.89" y="-130.8" font-family="Times,serif" font-size="14.00"> node.value</text>
</g>
<!-- found -->
<g id="node5" class="node">
<title>found</title>
<ellipse fill="none" stroke="black" cx="636.89" cy="-91" rx="66.09" ry="18"/>
<text text-anchor="middle" x="636.89" y="-87.3" font-family="Times,serif" font-size="14.00">return this node</text>
</g>
<!-- func&#45;&gt;found -->
<g id="edge3" class="edge">
<title>func&#45;&gt;found</title>
<path fill="none" stroke="black" d="M440.88,-191.19C457.09,-185.67 474.94,-179.07 490.89,-172 530.35,-154.5 573.45,-130.19 602.52,-112.98"/>
<polygon fill="black" stroke="black" points="604.65,-115.78 611.45,-107.65 601.07,-109.77 604.65,-115.78"/>
<text text-anchor="middle" x="606.89" y="-160.8" font-family="Times,serif" font-size="14.00">value </text>
<text text-anchor="middle" x="606.89" y="-145.8" font-family="Times,serif" font-size="14.00">==</text>
<text text-anchor="middle" x="606.89" y="-130.8" font-family="Times,serif" font-size="14.00"> node.value</text>
</g>
<!-- left&#45;&gt;func -->
<g id="edge5" class="edge">
<title>left&#45;&gt;func</title>
<path fill="none" stroke="black" stroke-dasharray="1,5" d="M337.32,-107.45C345.5,-112.76 353.77,-119.33 359.89,-127 372.1,-142.32 379.7,-163.12 384.19,-179.68"/>
<polygon fill="black" stroke="black" points="380.91,-180.98 386.71,-189.84 387.7,-179.29 380.91,-180.98"/>
</g>
<!-- rebalance -->
<g id="node6" class="node">
<title>rebalance</title>
<ellipse fill="none" stroke="black" cx="389.89" cy="-18" rx="63.89" ry="18"/>
<text text-anchor="middle" x="389.89" y="-14.3" font-family="Times,serif" font-size="14.00">rebalance node</text>
</g>
<!-- left&#45;&gt;rebalance -->
<g id="edge7" class="edge">
<title>left&#45;&gt;rebalance</title>
<path fill="none" stroke="black" d="M326.14,-73.53C337.04,-64.21 350.83,-52.41 362.81,-42.17"/>
<polygon fill="black" stroke="black" points="365.42,-44.54 370.74,-35.38 360.87,-39.22 365.42,-44.54"/>
</g>
<!-- right&#45;&gt;func -->
<g id="edge6" class="edge">
<title>right&#45;&gt;func</title>
<path fill="none" stroke="black" stroke-dasharray="1,5" d="M479.2,-109.26C482.49,-126.67 484.57,-153.56 471.89,-172 468,-177.66 463,-182.4 457.39,-186.38"/>
<polygon fill="black" stroke="black" points="455.46,-183.46 448.78,-191.69 459.13,-189.42 455.46,-183.46"/>
</g>
<!-- right&#45;&gt;rebalance -->
<g id="edge8" class="edge">
<title>right&#45;&gt;rebalance</title>
<path fill="none" stroke="black" d="M455.18,-73.53C443.91,-64.12 429.62,-52.18 417.27,-41.87"/>
<polygon fill="black" stroke="black" points="419.42,-39.1 409.5,-35.38 414.93,-44.47 419.42,-39.1"/>
</g>
</g>
</svg>
