<?xml version="1.0" encoding="UTF-8" standalone="no"?>
<!DOCTYPE svg PUBLIC "-//W3C//DTD SVG 1.1//EN"
 "http://www.w3.org/Graphics/SVG/1.1/DTD/svg11.dtd">
<!-- Generated by graphviz version 2.42.3 (0)
 -->
<!-- Title: %3 Pages: 1 -->
<svg width="200pt" height="422pt"
 viewBox="0.00 0.00 200.38 422.48" xmlns="http://www.w3.org/2000/svg" xmlns:xlink="http://www.w3.org/1999/xlink">
<g id="graph0" class="graph" transform="scale(1 1) rotate(0) translate(4 418.48)">
<title>%3</title>
<polygon fill="white" stroke="transparent" points="-4,4 -4,-418.48 196.38,-418.48 196.38,4 -4,4"/>
<text text-anchor="middle" x="96.19" y="-7.8" font-family="Times,serif" font-size="14.00">left rotate node y</text>
<!-- init -->
<g id="node1" class="node">
<title>init</title>
<ellipse fill="none" stroke="black" cx="96.19" cy="-387.61" rx="79.81" ry="26.74"/>
<text text-anchor="middle" x="96.19" y="-391.41" font-family="Times,serif" font-size="14.00">x ← y.rightson</text>
<text text-anchor="middle" x="96.19" y="-376.41" font-family="Times,serif" font-size="14.00">temp ← x.leftson</text>
</g>
<!-- change -->
<g id="node2" class="node">
<title>change</title>
<ellipse fill="none" stroke="black" cx="96.19" cy="-297.87" rx="84.71" ry="26.74"/>
<text text-anchor="middle" x="96.19" y="-301.67" font-family="Times,serif" font-size="14.00">x.leftson ← y</text>
<text text-anchor="middle" x="96.19" y="-286.67" font-family="Times,serif" font-size="14.00">y.rightson ← temp</text>
</g>
<!-- init&#45;&gt;change -->
<g id="edge1" class="edge">
<title>init&#45;&gt;change</title>
<path fill="none" stroke="black" d="M96.19,-360.29C96.19,-352.32 96.19,-343.43 96.19,-334.94"/>
<polygon fill="black" stroke="black" points="99.69,-334.87 96.19,-324.87 92.69,-334.87 99.69,-334.87"/>
</g>
<!-- racty -->
<g id="node3" class="node">
<title>racty</title>
<ellipse fill="none" stroke="black" cx="96.19" cy="-217" rx="96.38" ry="18"/>
<text text-anchor="middle" x="96.19" y="-213.3" font-family="Times,serif" font-size="14.00">maintain the height of y</text>
</g>
<!-- change&#45;&gt;racty -->
<g id="edge2" class="edge">
<title>change&#45;&gt;racty</title>
<path fill="none" stroke="black" d="M96.19,-270.61C96.19,-262.51 96.19,-253.57 96.19,-245.39"/>
<polygon fill="black" stroke="black" points="99.69,-245.22 96.19,-235.22 92.69,-245.22 99.69,-245.22"/>
</g>
<!-- ractx -->
<g id="node4" class="node">
<title>ractx</title>
<ellipse fill="none" stroke="black" cx="96.19" cy="-145" rx="96.38" ry="18"/>
<text text-anchor="middle" x="96.19" y="-141.3" font-family="Times,serif" font-size="14.00">maintain the height of x</text>
</g>
<!-- racty&#45;&gt;ractx -->
<g id="edge3" class="edge">
<title>racty&#45;&gt;ractx</title>
<path fill="none" stroke="black" d="M96.19,-198.7C96.19,-190.98 96.19,-181.71 96.19,-173.11"/>
<polygon fill="black" stroke="black" points="99.69,-173.1 96.19,-163.1 92.69,-173.1 99.69,-173.1"/>
</g>
<!-- return -->
<g id="node5" class="node">
<title>return</title>
<ellipse fill="none" stroke="black" cx="96.19" cy="-73" rx="79.09" ry="18"/>
<text text-anchor="middle" x="96.19" y="-69.3" font-family="Times,serif" font-size="14.00">return the pointer x</text>
</g>
<!-- ractx&#45;&gt;return -->
<g id="edge4" class="edge">
<title>ractx&#45;&gt;return</title>
<path fill="none" stroke="black" d="M96.19,-126.7C96.19,-118.98 96.19,-109.71 96.19,-101.11"/>
<polygon fill="black" stroke="black" points="99.69,-101.1 96.19,-91.1 92.69,-101.1 99.69,-101.1"/>
</g>
</g>
</svg>
