<?xml version="1.0" encoding="UTF-8" standalone="no"?>
<!DOCTYPE svg PUBLIC "-//W3C//DTD SVG 1.1//EN"
 "http://www.w3.org/Graphics/SVG/1.1/DTD/svg11.dtd">
<!-- Generated by graphviz version 2.42.3 (0)
 -->
<!-- Title: %3 Pages: 1 -->
<svg width="607pt" height="291pt"
 viewBox="0.00 0.00 607.08 291.00" xmlns="http://www.w3.org/2000/svg" xmlns:xlink="http://www.w3.org/1999/xlink">
<g id="graph0" class="graph" transform="scale(1 1) rotate(0) translate(4 287)">
<title>%3</title>
<polygon fill="white" stroke="transparent" points="-4,4 -4,-287 603.08,-287 603.08,4 -4,4"/>
<!-- get_bf -->
<g id="node1" class="node">
<title>get_bf</title>
<ellipse fill="none" stroke="black" cx="341.74" cy="-265" rx="94.48" ry="18"/>
<text text-anchor="middle" x="341.74" y="-261.3" font-family="Times,serif" font-size="14.00">calculate the bf of node</text>
</g>
<!-- L_ -->
<g id="node2" class="node">
<title>L_</title>
<ellipse fill="none" stroke="black" cx="263.74" cy="-178" rx="51.99" ry="18"/>
<text text-anchor="middle" x="263.74" y="-174.3" font-family="Times,serif" font-size="14.00">is LR case?</text>
</g>
<!-- get_bf&#45;&gt;L_ -->
<g id="edge1" class="edge">
<title>get_bf&#45;&gt;L_</title>
<path fill="none" stroke="black" d="M326.33,-247.21C314.72,-234.55 298.63,-217.03 285.68,-202.91"/>
<polygon fill="black" stroke="black" points="288.19,-200.47 278.85,-195.47 283.04,-205.2 288.19,-200.47"/>
<text text-anchor="middle" x="324.74" y="-217.8" font-family="Times,serif" font-size="14.00">bf &gt; 1</text>
</g>
<!-- R_ -->
<g id="node5" class="node">
<title>R_</title>
<ellipse fill="none" stroke="black" cx="421.74" cy="-178" rx="51.99" ry="18"/>
<text text-anchor="middle" x="421.74" y="-174.3" font-family="Times,serif" font-size="14.00">is RL case?</text>
</g>
<!-- get_bf&#45;&gt;R_ -->
<g id="edge2" class="edge">
<title>get_bf&#45;&gt;R_</title>
<path fill="none" stroke="black" d="M357.55,-247.21C369.46,-234.55 385.95,-217.03 399.24,-202.91"/>
<polygon fill="black" stroke="black" points="401.93,-205.15 406.24,-195.47 396.84,-200.35 401.93,-205.15"/>
<text text-anchor="middle" x="406.24" y="-217.8" font-family="Times,serif" font-size="14.00">bf &lt; &#45;1</text>
</g>
<!-- LR -->
<g id="node3" class="node">
<title>LR</title>
<ellipse fill="none" stroke="black" cx="113.74" cy="-91" rx="113.98" ry="18"/>
<text text-anchor="middle" x="113.74" y="-87.3" font-family="Times,serif" font-size="14.00">left rotate the leftson of node</text>
</g>
<!-- L_&#45;&gt;LR -->
<g id="edge3" class="edge">
<title>L_&#45;&gt;LR</title>
<path fill="none" stroke="black" d="M237.61,-162.19C213.86,-148.73 178.52,-128.71 151.66,-113.49"/>
<polygon fill="black" stroke="black" points="153.33,-110.41 142.9,-108.52 149.88,-116.5 153.33,-110.41"/>
<text text-anchor="middle" x="208.24" y="-130.8" font-family="Times,serif" font-size="14.00">Yes</text>
</g>
<!-- LALL -->
<g id="node4" class="node">
<title>LALL</title>
<ellipse fill="none" stroke="black" cx="219.74" cy="-18" rx="69.59" ry="18"/>
<text text-anchor="middle" x="219.74" y="-14.3" font-family="Times,serif" font-size="14.00">righ trotate node</text>
</g>
<!-- L_&#45;&gt;LALL -->
<g id="edge4" class="edge">
<title>L_&#45;&gt;LALL</title>
<path fill="none" stroke="black" d="M259.61,-160C254.52,-139.34 245.49,-103.48 236.74,-73 234.17,-64.04 231.17,-54.3 228.41,-45.6"/>
<polygon fill="black" stroke="black" points="231.71,-44.41 225.32,-35.96 225.04,-46.55 231.71,-44.41"/>
<text text-anchor="middle" x="255.24" y="-87.3" font-family="Times,serif" font-size="14.00">No</text>
</g>
<!-- LR&#45;&gt;LALL -->
<g id="edge5" class="edge">
<title>LR&#45;&gt;LALL</title>
<path fill="none" stroke="black" d="M138.59,-73.35C153.15,-63.6 171.7,-51.17 187.39,-40.67"/>
<polygon fill="black" stroke="black" points="189.41,-43.53 195.77,-35.05 185.52,-37.71 189.41,-43.53"/>
</g>
<!-- RL -->
<g id="node6" class="node">
<title>RL</title>
<ellipse fill="none" stroke="black" cx="421.74" cy="-91" rx="123.48" ry="18"/>
<text text-anchor="middle" x="421.74" y="-87.3" font-family="Times,serif" font-size="14.00">right rotate the rightson of node</text>
</g>
<!-- R_&#45;&gt;RL -->
<g id="edge6" class="edge">
<title>R_&#45;&gt;RL</title>
<path fill="none" stroke="black" d="M421.74,-159.8C421.74,-148.16 421.74,-132.55 421.74,-119.24"/>
<polygon fill="black" stroke="black" points="425.24,-119.18 421.74,-109.18 418.24,-119.18 425.24,-119.18"/>
<text text-anchor="middle" x="432.24" y="-130.8" font-family="Times,serif" font-size="14.00">Yes</text>
</g>
<!-- RALL -->
<g id="node7" class="node">
<title>RALL</title>
<ellipse fill="none" stroke="black" cx="534.74" cy="-18" rx="64.19" ry="18"/>
<text text-anchor="middle" x="534.74" y="-14.3" font-family="Times,serif" font-size="14.00">left rotate node</text>
</g>
<!-- R_&#45;&gt;RALL -->
<g id="edge7" class="edge">
<title>R_&#45;&gt;RALL</title>
<path fill="none" stroke="black" d="M464.33,-167.54C495.06,-158.25 534.41,-140.69 553.74,-109 565.62,-89.52 558.32,-63.75 549.55,-44.78"/>
<polygon fill="black" stroke="black" points="552.67,-43.19 545.07,-35.81 546.41,-46.32 552.67,-43.19"/>
<text text-anchor="middle" x="568.24" y="-87.3" font-family="Times,serif" font-size="14.00">No</text>
</g>
<!-- RL&#45;&gt;RALL -->
<g id="edge8" class="edge">
<title>RL&#45;&gt;RALL</title>
<path fill="none" stroke="black" d="M448.23,-73.35C464.01,-63.44 484.18,-50.77 501.08,-40.15"/>
<polygon fill="black" stroke="black" points="502.97,-43.09 509.58,-34.81 499.25,-37.17 502.97,-43.09"/>
</g>
</g>
</svg>
