<?xml version="1.0" encoding="UTF-8" standalone="no"?>
<!DOCTYPE svg PUBLIC "-//W3C//DTD SVG 1.1//EN"
 "http://www.w3.org/Graphics/SVG/1.1/DTD/svg11.dtd">
<!-- Generated by graphviz version 2.42.3 (0)
 -->
<!-- Title: %3 Pages: 1 -->
<svg width="359pt" height="260pt"
 viewBox="0.00 0.00 358.90 260.00" xmlns="http://www.w3.org/2000/svg" xmlns:xlink="http://www.w3.org/1999/xlink">
<g id="graph0" class="graph" transform="scale(1 1) rotate(0) translate(4 256)">
<title>%3</title>
<polygon fill="white" stroke="transparent" points="-4,4 -4,-256 354.9,-256 354.9,4 -4,4"/>
<!-- 2 -->
<g id="node1" class="node">
<title>2</title>
<ellipse fill="none" stroke="black" cx="137.95" cy="-234" rx="27" ry="18"/>
<text text-anchor="middle" x="137.95" y="-230.3" font-family="Times,serif" font-size="14.00">2</text>
</g>
<!-- 1 -->
<g id="node2" class="node">
<title>1</title>
<ellipse fill="none" stroke="black" cx="101.95" cy="-162" rx="27" ry="18"/>
<text text-anchor="middle" x="101.95" y="-158.3" font-family="Times,serif" font-size="14.00">1</text>
</g>
<!-- 2&#45;&gt;1 -->
<g id="edge1" class="edge">
<title>2&#45;&gt;1</title>
<path fill="none" stroke="black" d="M129.6,-216.76C125.24,-208.28 119.8,-197.71 114.91,-188.2"/>
<polygon fill="black" stroke="black" points="117.94,-186.44 110.25,-179.15 111.71,-189.64 117.94,-186.44"/>
</g>
<!-- 4 -->
<g id="node5" class="node">
<title>4</title>
<ellipse fill="none" stroke="black" cx="174.95" cy="-162" rx="27" ry="18"/>
<text text-anchor="middle" x="174.95" y="-158.3" font-family="Times,serif" font-size="14.00">4</text>
</g>
<!-- 2&#45;&gt;4 -->
<g id="edge4" class="edge">
<title>2&#45;&gt;4</title>
<path fill="none" stroke="black" d="M146.53,-216.76C151.01,-208.28 156.6,-197.71 161.63,-188.2"/>
<polygon fill="black" stroke="black" points="164.83,-189.62 166.41,-179.15 158.65,-186.35 164.83,-189.62"/>
</g>
<!-- null0 -->
<g id="node3" class="node">
<title>null0</title>
<ellipse fill="none" stroke="black" cx="27.95" cy="-90" rx="27.9" ry="18"/>
<text text-anchor="middle" x="27.95" y="-86.3" font-family="Times,serif" font-size="14.00">none</text>
</g>
<!-- 1&#45;&gt;null0 -->
<g id="edge2" class="edge">
<title>1&#45;&gt;null0</title>
<path fill="none" stroke="black" d="M86.97,-146.83C76.51,-136.94 62.35,-123.55 50.53,-112.36"/>
<polygon fill="black" stroke="black" points="52.82,-109.71 43.15,-105.38 48.01,-114.8 52.82,-109.71"/>
</g>
<!-- null1 -->
<g id="node4" class="node">
<title>null1</title>
<ellipse fill="none" stroke="black" cx="101.95" cy="-90" rx="27.9" ry="18"/>
<text text-anchor="middle" x="101.95" y="-86.3" font-family="Times,serif" font-size="14.00">none</text>
</g>
<!-- 1&#45;&gt;null1 -->
<g id="edge3" class="edge">
<title>1&#45;&gt;null1</title>
<path fill="none" stroke="black" d="M101.95,-143.7C101.95,-135.98 101.95,-126.71 101.95,-118.11"/>
<polygon fill="black" stroke="black" points="105.45,-118.1 101.95,-108.1 98.45,-118.1 105.45,-118.1"/>
</g>
<!-- 3 -->
<g id="node6" class="node">
<title>3</title>
<ellipse fill="none" stroke="black" cx="174.95" cy="-90" rx="27" ry="18"/>
<text text-anchor="middle" x="174.95" y="-86.3" font-family="Times,serif" font-size="14.00">3</text>
</g>
<!-- 4&#45;&gt;3 -->
<g id="edge5" class="edge">
<title>4&#45;&gt;3</title>
<path fill="none" stroke="black" d="M174.95,-143.7C174.95,-135.98 174.95,-126.71 174.95,-118.11"/>
<polygon fill="black" stroke="black" points="178.45,-118.1 174.95,-108.1 171.45,-118.1 178.45,-118.1"/>
</g>
<!-- 5 -->
<g id="node9" class="node">
<title>5</title>
<ellipse fill="none" stroke="black" cx="248.95" cy="-90" rx="27" ry="18"/>
<text text-anchor="middle" x="248.95" y="-86.3" font-family="Times,serif" font-size="14.00">5</text>
</g>
<!-- 4&#45;&gt;5 -->
<g id="edge8" class="edge">
<title>4&#45;&gt;5</title>
<path fill="none" stroke="black" d="M189.92,-146.83C200.45,-136.87 214.73,-123.37 226.6,-112.14"/>
<polygon fill="black" stroke="black" points="229.14,-114.56 233.99,-105.14 224.32,-109.47 229.14,-114.56"/>
</g>
<!-- null2 -->
<g id="node7" class="node">
<title>null2</title>
<ellipse fill="none" stroke="black" cx="100.95" cy="-18" rx="27.9" ry="18"/>
<text text-anchor="middle" x="100.95" y="-14.3" font-family="Times,serif" font-size="14.00">none</text>
</g>
<!-- 3&#45;&gt;null2 -->
<g id="edge6" class="edge">
<title>3&#45;&gt;null2</title>
<path fill="none" stroke="black" d="M159.97,-74.83C149.51,-64.94 135.35,-51.55 123.53,-40.36"/>
<polygon fill="black" stroke="black" points="125.82,-37.71 116.15,-33.38 121.01,-42.8 125.82,-37.71"/>
</g>
<!-- null3 -->
<g id="node8" class="node">
<title>null3</title>
<ellipse fill="none" stroke="black" cx="174.95" cy="-18" rx="27.9" ry="18"/>
<text text-anchor="middle" x="174.95" y="-14.3" font-family="Times,serif" font-size="14.00">none</text>
</g>
<!-- 3&#45;&gt;null3 -->
<g id="edge7" class="edge">
<title>3&#45;&gt;null3</title>
<path fill="none" stroke="black" d="M174.95,-71.7C174.95,-63.98 174.95,-54.71 174.95,-46.11"/>
<polygon fill="black" stroke="black" points="178.45,-46.1 174.95,-36.1 171.45,-46.1 178.45,-46.1"/>
</g>
<!-- null4 -->
<g id="node10" class="node">
<title>null4</title>
<ellipse fill="none" stroke="black" cx="248.95" cy="-18" rx="27.9" ry="18"/>
<text text-anchor="middle" x="248.95" y="-14.3" font-family="Times,serif" font-size="14.00">none</text>
</g>
<!-- 5&#45;&gt;null4 -->
<g id="edge9" class="edge">
<title>5&#45;&gt;null4</title>
<path fill="none" stroke="black" d="M248.95,-71.7C248.95,-63.98 248.95,-54.71 248.95,-46.11"/>
<polygon fill="black" stroke="black" points="252.45,-46.1 248.95,-36.1 245.45,-46.1 252.45,-46.1"/>
</g>
<!-- null5 -->
<g id="node11" class="node">
<title>null5</title>
<ellipse fill="none" stroke="black" cx="322.95" cy="-18" rx="27.9" ry="18"/>
<text text-anchor="middle" x="322.95" y="-14.3" font-family="Times,serif" font-size="14.00">none</text>
</g>
<!-- 5&#45;&gt;null5 -->
<g id="edge10" class="edge">
<title>5&#45;&gt;null5</title>
<path fill="none" stroke="black" d="M263.92,-74.83C274.38,-64.94 288.54,-51.55 300.37,-40.36"/>
<polygon fill="black" stroke="black" points="302.88,-42.8 307.74,-33.38 298.07,-37.71 302.88,-42.8"/>
</g>
</g>
</svg>
