<?xml version="1.0" encoding="UTF-8" standalone="no"?>
<!DOCTYPE svg PUBLIC "-//W3C//DTD SVG 1.1//EN"
 "http://www.w3.org/Graphics/SVG/1.1/DTD/svg11.dtd">
<!-- Generated by graphviz version 2.42.3 (0)
 -->
<!-- Title: %3 Pages: 1 -->
<svg width="506pt" height="332pt"
 viewBox="0.00 0.00 505.90 332.00" xmlns="http://www.w3.org/2000/svg" xmlns:xlink="http://www.w3.org/1999/xlink">
<g id="graph0" class="graph" transform="scale(1 1) rotate(0) translate(4 328)">
<title>%3</title>
<polygon fill="white" stroke="transparent" points="-4,4 -4,-328 501.9,-328 501.9,4 -4,4"/>
<!-- 4 -->
<g id="node1" class="node">
<title>4</title>
<ellipse fill="none" stroke="black" cx="137.95" cy="-306" rx="27" ry="18"/>
<text text-anchor="middle" x="137.95" y="-302.3" font-family="Times,serif" font-size="14.00">4</text>
</g>
<!-- 1 -->
<g id="node2" class="node">
<title>1</title>
<ellipse fill="none" stroke="black" cx="101.95" cy="-234" rx="27" ry="18"/>
<text text-anchor="middle" x="101.95" y="-230.3" font-family="Times,serif" font-size="14.00">1</text>
</g>
<!-- 4&#45;&gt;1 -->
<g id="edge1" class="edge">
<title>4&#45;&gt;1</title>
<path fill="none" stroke="black" d="M129.6,-288.76C125.24,-280.28 119.8,-269.71 114.91,-260.2"/>
<polygon fill="black" stroke="black" points="117.94,-258.44 110.25,-251.15 111.71,-261.64 117.94,-258.44"/>
</g>
<!-- 8 -->
<g id="node7" class="node">
<title>8</title>
<ellipse fill="none" stroke="black" cx="210.95" cy="-234" rx="27" ry="18"/>
<text text-anchor="middle" x="210.95" y="-230.3" font-family="Times,serif" font-size="14.00">8</text>
</g>
<!-- 4&#45;&gt;8 -->
<g id="edge6" class="edge">
<title>4&#45;&gt;8</title>
<path fill="none" stroke="black" d="M152.72,-290.83C163.11,-280.87 177.19,-267.37 188.9,-256.14"/>
<polygon fill="black" stroke="black" points="191.4,-258.59 196.2,-249.14 186.56,-253.54 191.4,-258.59"/>
</g>
<!-- null0 -->
<g id="node3" class="node">
<title>null0</title>
<ellipse fill="none" stroke="black" cx="28.95" cy="-162" rx="27.9" ry="18"/>
<text text-anchor="middle" x="28.95" y="-158.3" font-family="Times,serif" font-size="14.00">none</text>
</g>
<!-- 1&#45;&gt;null0 -->
<g id="edge2" class="edge">
<title>1&#45;&gt;null0</title>
<path fill="none" stroke="black" d="M87.17,-218.83C76.85,-208.94 62.89,-195.55 51.22,-184.36"/>
<polygon fill="black" stroke="black" points="53.59,-181.78 43.95,-177.38 48.74,-186.83 53.59,-181.78"/>
</g>
<!-- 3 -->
<g id="node4" class="node">
<title>3</title>
<ellipse fill="none" stroke="black" cx="101.95" cy="-162" rx="27" ry="18"/>
<text text-anchor="middle" x="101.95" y="-158.3" font-family="Times,serif" font-size="14.00">3</text>
</g>
<!-- 1&#45;&gt;3 -->
<g id="edge3" class="edge">
<title>1&#45;&gt;3</title>
<path fill="none" stroke="black" d="M101.95,-215.7C101.95,-207.98 101.95,-198.71 101.95,-190.11"/>
<polygon fill="black" stroke="black" points="105.45,-190.1 101.95,-180.1 98.45,-190.1 105.45,-190.1"/>
</g>
<!-- null1 -->
<g id="node5" class="node">
<title>null1</title>
<ellipse fill="none" stroke="black" cx="27.95" cy="-90" rx="27.9" ry="18"/>
<text text-anchor="middle" x="27.95" y="-86.3" font-family="Times,serif" font-size="14.00">none</text>
</g>
<!-- 3&#45;&gt;null1 -->
<g id="edge4" class="edge">
<title>3&#45;&gt;null1</title>
<path fill="none" stroke="black" d="M86.97,-146.83C76.51,-136.94 62.35,-123.55 50.53,-112.36"/>
<polygon fill="black" stroke="black" points="52.82,-109.71 43.15,-105.38 48.01,-114.8 52.82,-109.71"/>
</g>
<!-- null2 -->
<g id="node6" class="node">
<title>null2</title>
<ellipse fill="none" stroke="black" cx="101.95" cy="-90" rx="27.9" ry="18"/>
<text text-anchor="middle" x="101.95" y="-86.3" font-family="Times,serif" font-size="14.00">none</text>
</g>
<!-- 3&#45;&gt;null2 -->
<g id="edge5" class="edge">
<title>3&#45;&gt;null2</title>
<path fill="none" stroke="black" d="M101.95,-143.7C101.95,-135.98 101.95,-126.71 101.95,-118.11"/>
<polygon fill="black" stroke="black" points="105.45,-118.1 101.95,-108.1 98.45,-118.1 105.45,-118.1"/>
</g>
<!-- 6 -->
<g id="node8" class="node">
<title>6</title>
<ellipse fill="none" stroke="black" cx="210.95" cy="-162" rx="27" ry="18"/>
<text text-anchor="middle" x="210.95" y="-158.3" font-family="Times,serif" font-size="14.00">6</text>
</g>
<!-- 8&#45;&gt;6 -->
<g id="edge7" class="edge">
<title>8&#45;&gt;6</title>
<path fill="none" stroke="black" d="M210.95,-215.7C210.95,-207.98 210.95,-198.71 210.95,-190.11"/>
<polygon fill="black" stroke="black" points="214.45,-190.1 210.95,-180.1 207.45,-190.1 214.45,-190.1"/>
</g>
<!-- 9 -->
<g id="node15" class="node">
<title>9</title>
<ellipse fill="none" stroke="black" cx="321.95" cy="-162" rx="27" ry="18"/>
<text text-anchor="middle" x="321.95" y="-158.3" font-family="Times,serif" font-size="14.00">9</text>
</g>
<!-- 8&#45;&gt;9 -->
<g id="edge14" class="edge">
<title>8&#45;&gt;9</title>
<path fill="none" stroke="black" d="M230.03,-220.97C247.66,-209.85 274.07,-193.19 294.06,-180.58"/>
<polygon fill="black" stroke="black" points="296.15,-183.41 302.74,-175.11 292.42,-177.48 296.15,-183.41"/>
</g>
<!-- 5 -->
<g id="node9" class="node">
<title>5</title>
<ellipse fill="none" stroke="black" cx="174.95" cy="-90" rx="27" ry="18"/>
<text text-anchor="middle" x="174.95" y="-86.3" font-family="Times,serif" font-size="14.00">5</text>
</g>
<!-- 6&#45;&gt;5 -->
<g id="edge8" class="edge">
<title>6&#45;&gt;5</title>
<path fill="none" stroke="black" d="M202.6,-144.76C198.24,-136.28 192.8,-125.71 187.91,-116.2"/>
<polygon fill="black" stroke="black" points="190.94,-114.44 183.25,-107.15 184.71,-117.64 190.94,-114.44"/>
</g>
<!-- 7 -->
<g id="node12" class="node">
<title>7</title>
<ellipse fill="none" stroke="black" cx="247.95" cy="-90" rx="27" ry="18"/>
<text text-anchor="middle" x="247.95" y="-86.3" font-family="Times,serif" font-size="14.00">7</text>
</g>
<!-- 6&#45;&gt;7 -->
<g id="edge11" class="edge">
<title>6&#45;&gt;7</title>
<path fill="none" stroke="black" d="M219.53,-144.76C224.01,-136.28 229.6,-125.71 234.63,-116.2"/>
<polygon fill="black" stroke="black" points="237.83,-117.62 239.41,-107.15 231.65,-114.35 237.83,-117.62"/>
</g>
<!-- null3 -->
<g id="node10" class="node">
<title>null3</title>
<ellipse fill="none" stroke="black" cx="99.95" cy="-18" rx="27.9" ry="18"/>
<text text-anchor="middle" x="99.95" y="-14.3" font-family="Times,serif" font-size="14.00">none</text>
</g>
<!-- 5&#45;&gt;null3 -->
<g id="edge9" class="edge">
<title>5&#45;&gt;null3</title>
<path fill="none" stroke="black" d="M159.77,-74.83C149.1,-64.87 134.63,-51.37 122.59,-40.14"/>
<polygon fill="black" stroke="black" points="124.8,-37.41 115.1,-33.14 120.02,-42.53 124.8,-37.41"/>
</g>
<!-- null4 -->
<g id="node11" class="node">
<title>null4</title>
<ellipse fill="none" stroke="black" cx="173.95" cy="-18" rx="27.9" ry="18"/>
<text text-anchor="middle" x="173.95" y="-14.3" font-family="Times,serif" font-size="14.00">none</text>
</g>
<!-- 5&#45;&gt;null4 -->
<g id="edge10" class="edge">
<title>5&#45;&gt;null4</title>
<path fill="none" stroke="black" d="M174.7,-71.7C174.59,-63.98 174.46,-54.71 174.33,-46.11"/>
<polygon fill="black" stroke="black" points="177.83,-46.05 174.19,-36.1 170.84,-46.15 177.83,-46.05"/>
</g>
<!-- null5 -->
<g id="node13" class="node">
<title>null5</title>
<ellipse fill="none" stroke="black" cx="247.95" cy="-18" rx="27.9" ry="18"/>
<text text-anchor="middle" x="247.95" y="-14.3" font-family="Times,serif" font-size="14.00">none</text>
</g>
<!-- 7&#45;&gt;null5 -->
<g id="edge12" class="edge">
<title>7&#45;&gt;null5</title>
<path fill="none" stroke="black" d="M247.95,-71.7C247.95,-63.98 247.95,-54.71 247.95,-46.11"/>
<polygon fill="black" stroke="black" points="251.45,-46.1 247.95,-36.1 244.45,-46.1 251.45,-46.1"/>
</g>
<!-- null6 -->
<g id="node14" class="node">
<title>null6</title>
<ellipse fill="none" stroke="black" cx="321.95" cy="-18" rx="27.9" ry="18"/>
<text text-anchor="middle" x="321.95" y="-14.3" font-family="Times,serif" font-size="14.00">none</text>
</g>
<!-- 7&#45;&gt;null6 -->
<g id="edge13" class="edge">
<title>7&#45;&gt;null6</title>
<path fill="none" stroke="black" d="M262.92,-74.83C273.38,-64.94 287.54,-51.55 299.37,-40.36"/>
<polygon fill="black" stroke="black" points="301.88,-42.8 306.74,-33.38 297.07,-37.71 301.88,-42.8"/>
</g>
<!-- null7 -->
<g id="node16" class="node">
<title>null7</title>
<ellipse fill="none" stroke="black" cx="321.95" cy="-90" rx="27.9" ry="18"/>
<text text-anchor="middle" x="321.95" y="-86.3" font-family="Times,serif" font-size="14.00">none</text>
</g>
<!-- 9&#45;&gt;null7 -->
<g id="edge15" class="edge">
<title>9&#45;&gt;null7</title>
<path fill="none" stroke="black" d="M321.95,-143.7C321.95,-135.98 321.95,-126.71 321.95,-118.11"/>
<polygon fill="black" stroke="black" points="325.45,-118.1 321.95,-108.1 318.45,-118.1 325.45,-118.1"/>
</g>
<!-- 10 -->
<g id="node17" class="node">
<title>10</title>
<ellipse fill="none" stroke="black" cx="395.95" cy="-90" rx="27" ry="18"/>
<text text-anchor="middle" x="395.95" y="-86.3" font-family="Times,serif" font-size="14.00">10</text>
</g>
<!-- 9&#45;&gt;10 -->
<g id="edge16" class="edge">
<title>9&#45;&gt;10</title>
<path fill="none" stroke="black" d="M336.92,-146.83C347.45,-136.87 361.73,-123.37 373.6,-112.14"/>
<polygon fill="black" stroke="black" points="376.14,-114.56 380.99,-105.14 371.32,-109.47 376.14,-114.56"/>
</g>
<!-- null8 -->
<g id="node18" class="node">
<title>null8</title>
<ellipse fill="none" stroke="black" cx="395.95" cy="-18" rx="27.9" ry="18"/>
<text text-anchor="middle" x="395.95" y="-14.3" font-family="Times,serif" font-size="14.00">none</text>
</g>
<!-- 10&#45;&gt;null8 -->
<g id="edge17" class="edge">
<title>10&#45;&gt;null8</title>
<path fill="none" stroke="black" d="M395.95,-71.7C395.95,-63.98 395.95,-54.71 395.95,-46.11"/>
<polygon fill="black" stroke="black" points="399.45,-46.1 395.95,-36.1 392.45,-46.1 399.45,-46.1"/>
</g>
<!-- null9 -->
<g id="node19" class="node">
<title>null9</title>
<ellipse fill="none" stroke="black" cx="469.95" cy="-18" rx="27.9" ry="18"/>
<text text-anchor="middle" x="469.95" y="-14.3" font-family="Times,serif" font-size="14.00">none</text>
</g>
<!-- 10&#45;&gt;null9 -->
<g id="edge18" class="edge">
<title>10&#45;&gt;null9</title>
<path fill="none" stroke="black" d="M410.92,-74.83C421.38,-64.94 435.54,-51.55 447.37,-40.36"/>
<polygon fill="black" stroke="black" points="449.88,-42.8 454.74,-33.38 445.07,-37.71 449.88,-42.8"/>
</g>
</g>
</svg>
