<?xml version="1.0" encoding="UTF-8" standalone="no"?>
<!DOCTYPE svg PUBLIC "-//W3C//DTD SVG 1.1//EN"
 "http://www.w3.org/Graphics/SVG/1.1/DTD/svg11.dtd">
<!-- Generated by graphviz version 2.42.3 (0)
 -->
<!-- Title: %3 Pages: 1 -->
<svg width="174pt" height="188pt"
 viewBox="0.00 0.00 173.90 188.00" xmlns="http://www.w3.org/2000/svg" xmlns:xlink="http://www.w3.org/1999/xlink">
<g id="graph0" class="graph" transform="scale(1 1) rotate(0) translate(4 184)">
<title>%3</title>
<polygon fill="white" stroke="transparent" points="-4,4 -4,-184 169.9,-184 169.9,4 -4,4"/>
<!-- null0 -->
<g id="node1" class="node">
<title>null0</title>
<ellipse fill="none" stroke="black" cx="27.95" cy="-90" rx="27.9" ry="18"/>
<text text-anchor="middle" x="27.95" y="-86.3" font-family="Times,serif" font-size="14.00">none</text>
</g>
<!-- 1 -->
<g id="node2" class="node">
<title>1</title>
<ellipse fill="none" stroke="black" cx="63.95" cy="-162" rx="27" ry="18"/>
<text text-anchor="middle" x="63.95" y="-158.3" font-family="Times,serif" font-size="14.00">1</text>
</g>
<!-- 1&#45;&gt;null0 -->
<g id="edge1" class="edge">
<title>1&#45;&gt;null0</title>
<path fill="none" stroke="black" d="M55.6,-144.76C51.3,-136.4 45.96,-126.02 41.12,-116.61"/>
<polygon fill="black" stroke="black" points="44.19,-114.93 36.5,-107.63 37.96,-118.13 44.19,-114.93"/>
</g>
<!-- 2 -->
<g id="node3" class="node">
<title>2</title>
<ellipse fill="none" stroke="black" cx="100.95" cy="-90" rx="27" ry="18"/>
<text text-anchor="middle" x="100.95" y="-86.3" font-family="Times,serif" font-size="14.00">2</text>
</g>
<!-- 1&#45;&gt;2 -->
<g id="edge2" class="edge">
<title>1&#45;&gt;2</title>
<path fill="none" stroke="black" d="M72.53,-144.76C77.01,-136.28 82.6,-125.71 87.63,-116.2"/>
<polygon fill="black" stroke="black" points="90.83,-117.62 92.41,-107.15 84.65,-114.35 90.83,-117.62"/>
</g>
<!-- null1 -->
<g id="node4" class="node">
<title>null1</title>
<ellipse fill="none" stroke="black" cx="63.95" cy="-18" rx="27.9" ry="18"/>
<text text-anchor="middle" x="63.95" y="-14.3" font-family="Times,serif" font-size="14.00">none</text>
</g>
<!-- 2&#45;&gt;null1 -->
<g id="edge3" class="edge">
<title>2&#45;&gt;null1</title>
<path fill="none" stroke="black" d="M92.37,-72.76C87.88,-64.28 82.3,-53.71 77.27,-44.2"/>
<polygon fill="black" stroke="black" points="80.25,-42.35 72.48,-35.15 74.06,-45.62 80.25,-42.35"/>
</g>
<!-- null2 -->
<g id="node5" class="node">
<title>null2</title>
<ellipse fill="none" stroke="black" cx="137.95" cy="-18" rx="27.9" ry="18"/>
<text text-anchor="middle" x="137.95" y="-14.3" font-family="Times,serif" font-size="14.00">none</text>
</g>
<!-- 2&#45;&gt;null2 -->
<g id="edge4" class="edge">
<title>2&#45;&gt;null2</title>
<path fill="none" stroke="black" d="M109.53,-72.76C114.01,-64.28 119.6,-53.71 124.63,-44.2"/>
<polygon fill="black" stroke="black" points="127.83,-45.62 129.41,-35.15 121.65,-42.35 127.83,-45.62"/>
</g>
</g>
</svg>
