<?xml version="1.0" encoding="UTF-8" standalone="no"?>
<!DOCTYPE svg PUBLIC "-//W3C//DTD SVG 1.1//EN"
 "http://www.w3.org/Graphics/SVG/1.1/DTD/svg11.dtd">
<!-- Generated by graphviz version 2.42.3 (0)
 -->
<!-- Title: %3 Pages: 1 -->
<svg width="322pt" height="260pt"
 viewBox="0.00 0.00 321.90 260.00" xmlns="http://www.w3.org/2000/svg" xmlns:xlink="http://www.w3.org/1999/xlink">
<g id="graph0" class="graph" transform="scale(1 1) rotate(0) translate(4 256)">
<title>%3</title>
<polygon fill="white" stroke="transparent" points="-4,4 -4,-256 317.9,-256 317.9,4 -4,4"/>
<!-- 2 -->
<g id="node1" class="node">
<title>2</title>
<ellipse fill="none" stroke="black" cx="138.95" cy="-234" rx="27" ry="18"/>
<text text-anchor="middle" x="138.95" y="-230.3" font-family="Times,serif" font-size="14.00">2</text>
</g>
<!-- 1 -->
<g id="node2" class="node">
<title>1</title>
<ellipse fill="none" stroke="black" cx="101.95" cy="-162" rx="27" ry="18"/>
<text text-anchor="middle" x="101.95" y="-158.3" font-family="Times,serif" font-size="14.00">1</text>
</g>
<!-- 2&#45;&gt;1 -->
<g id="edge1" class="edge">
<title>2&#45;&gt;1</title>
<path fill="none" stroke="black" d="M130.37,-216.76C125.88,-208.28 120.3,-197.71 115.27,-188.2"/>
<polygon fill="black" stroke="black" points="118.25,-186.35 110.48,-179.15 112.06,-189.62 118.25,-186.35"/>
</g>
<!-- 3 -->
<g id="node5" class="node">
<title>3</title>
<ellipse fill="none" stroke="black" cx="175.95" cy="-162" rx="27" ry="18"/>
<text text-anchor="middle" x="175.95" y="-158.3" font-family="Times,serif" font-size="14.00">3</text>
</g>
<!-- 2&#45;&gt;3 -->
<g id="edge4" class="edge">
<title>2&#45;&gt;3</title>
<path fill="none" stroke="black" d="M147.53,-216.76C152.01,-208.28 157.6,-197.71 162.63,-188.2"/>
<polygon fill="black" stroke="black" points="165.83,-189.62 167.41,-179.15 159.65,-186.35 165.83,-189.62"/>
</g>
<!-- null0 -->
<g id="node3" class="node">
<title>null0</title>
<ellipse fill="none" stroke="black" cx="27.95" cy="-90" rx="27.9" ry="18"/>
<text text-anchor="middle" x="27.95" y="-86.3" font-family="Times,serif" font-size="14.00">none</text>
</g>
<!-- 1&#45;&gt;null0 -->
<g id="edge2" class="edge">
<title>1&#45;&gt;null0</title>
<path fill="none" stroke="black" d="M86.97,-146.83C76.51,-136.94 62.35,-123.55 50.53,-112.36"/>
<polygon fill="black" stroke="black" points="52.82,-109.71 43.15,-105.38 48.01,-114.8 52.82,-109.71"/>
</g>
<!-- null1 -->
<g id="node4" class="node">
<title>null1</title>
<ellipse fill="none" stroke="black" cx="101.95" cy="-90" rx="27.9" ry="18"/>
<text text-anchor="middle" x="101.95" y="-86.3" font-family="Times,serif" font-size="14.00">none</text>
</g>
<!-- 1&#45;&gt;null1 -->
<g id="edge3" class="edge">
<title>1&#45;&gt;null1</title>
<path fill="none" stroke="black" d="M101.95,-143.7C101.95,-135.98 101.95,-126.71 101.95,-118.11"/>
<polygon fill="black" stroke="black" points="105.45,-118.1 101.95,-108.1 98.45,-118.1 105.45,-118.1"/>
</g>
<!-- null2 -->
<g id="node6" class="node">
<title>null2</title>
<ellipse fill="none" stroke="black" cx="175.95" cy="-90" rx="27.9" ry="18"/>
<text text-anchor="middle" x="175.95" y="-86.3" font-family="Times,serif" font-size="14.00">none</text>
</g>
<!-- 3&#45;&gt;null2 -->
<g id="edge5" class="edge">
<title>3&#45;&gt;null2</title>
<path fill="none" stroke="black" d="M175.95,-143.7C175.95,-135.98 175.95,-126.71 175.95,-118.11"/>
<polygon fill="black" stroke="black" points="179.45,-118.1 175.95,-108.1 172.45,-118.1 179.45,-118.1"/>
</g>
<!-- 4 -->
<g id="node7" class="node">
<title>4</title>
<ellipse fill="none" stroke="black" cx="248.95" cy="-90" rx="27" ry="18"/>
<text text-anchor="middle" x="248.95" y="-86.3" font-family="Times,serif" font-size="14.00">4</text>
</g>
<!-- 3&#45;&gt;4 -->
<g id="edge6" class="edge">
<title>3&#45;&gt;4</title>
<path fill="none" stroke="black" d="M190.72,-146.83C201.11,-136.87 215.19,-123.37 226.9,-112.14"/>
<polygon fill="black" stroke="black" points="229.4,-114.59 234.2,-105.14 224.56,-109.54 229.4,-114.59"/>
</g>
<!-- null3 -->
<g id="node8" class="node">
<title>null3</title>
<ellipse fill="none" stroke="black" cx="211.95" cy="-18" rx="27.9" ry="18"/>
<text text-anchor="middle" x="211.95" y="-14.3" font-family="Times,serif" font-size="14.00">none</text>
</g>
<!-- 4&#45;&gt;null3 -->
<g id="edge7" class="edge">
<title>4&#45;&gt;null3</title>
<path fill="none" stroke="black" d="M240.37,-72.76C235.88,-64.28 230.3,-53.71 225.27,-44.2"/>
<polygon fill="black" stroke="black" points="228.25,-42.35 220.48,-35.15 222.06,-45.62 228.25,-42.35"/>
</g>
<!-- null4 -->
<g id="node9" class="node">
<title>null4</title>
<ellipse fill="none" stroke="black" cx="285.95" cy="-18" rx="27.9" ry="18"/>
<text text-anchor="middle" x="285.95" y="-14.3" font-family="Times,serif" font-size="14.00">none</text>
</g>
<!-- 4&#45;&gt;null4 -->
<g id="edge8" class="edge">
<title>4&#45;&gt;null4</title>
<path fill="none" stroke="black" d="M257.53,-72.76C262.01,-64.28 267.6,-53.71 272.63,-44.2"/>
<polygon fill="black" stroke="black" points="275.83,-45.62 277.41,-35.15 269.65,-42.35 275.83,-45.62"/>
</g>
</g>
</svg>
