<?xml version="1.0" encoding="UTF-8" standalone="no"?>
<!DOCTYPE svg PUBLIC "-//W3C//DTD SVG 1.1//EN"
 "http://www.w3.org/Graphics/SVG/1.1/DTD/svg11.dtd">
<!-- Generated by graphviz version 2.42.3 (0)
 -->
<!-- Title: %3 Pages: 1 -->
<svg width="654pt" height="332pt"
 viewBox="0.00 0.00 653.90 332.00" xmlns="http://www.w3.org/2000/svg" xmlns:xlink="http://www.w3.org/1999/xlink">
<g id="graph0" class="graph" transform="scale(1 1) rotate(0) translate(4 328)">
<title>%3</title>
<polygon fill="white" stroke="transparent" points="-4,4 -4,-328 649.9,-328 649.9,4 -4,4"/>
<!-- 4 -->
<g id="node1" class="node">
<title>4</title>
<ellipse fill="none" stroke="black" cx="285.95" cy="-306" rx="27" ry="18"/>
<text text-anchor="middle" x="285.95" y="-302.3" font-family="Times,serif" font-size="14.00">4</text>
</g>
<!-- 2 -->
<g id="node2" class="node">
<title>2</title>
<ellipse fill="none" stroke="black" cx="212.95" cy="-234" rx="27" ry="18"/>
<text text-anchor="middle" x="212.95" y="-230.3" font-family="Times,serif" font-size="14.00">2</text>
</g>
<!-- 4&#45;&gt;2 -->
<g id="edge1" class="edge">
<title>4&#45;&gt;2</title>
<path fill="none" stroke="black" d="M271.17,-290.83C260.79,-280.87 246.7,-267.37 234.99,-256.14"/>
<polygon fill="black" stroke="black" points="237.34,-253.54 227.7,-249.14 232.49,-258.59 237.34,-253.54"/>
</g>
<!-- 8 -->
<g id="node9" class="node">
<title>8</title>
<ellipse fill="none" stroke="black" cx="358.95" cy="-234" rx="27" ry="18"/>
<text text-anchor="middle" x="358.95" y="-230.3" font-family="Times,serif" font-size="14.00">8</text>
</g>
<!-- 4&#45;&gt;8 -->
<g id="edge8" class="edge">
<title>4&#45;&gt;8</title>
<path fill="none" stroke="black" d="M300.72,-290.83C311.11,-280.87 325.19,-267.37 336.9,-256.14"/>
<polygon fill="black" stroke="black" points="339.4,-258.59 344.2,-249.14 334.56,-253.54 339.4,-258.59"/>
</g>
<!-- 1 -->
<g id="node3" class="node">
<title>1</title>
<ellipse fill="none" stroke="black" cx="101.95" cy="-162" rx="27" ry="18"/>
<text text-anchor="middle" x="101.95" y="-158.3" font-family="Times,serif" font-size="14.00">1</text>
</g>
<!-- 2&#45;&gt;1 -->
<g id="edge2" class="edge">
<title>2&#45;&gt;1</title>
<path fill="none" stroke="black" d="M193.87,-220.97C176.23,-209.85 149.82,-193.19 129.83,-180.58"/>
<polygon fill="black" stroke="black" points="131.48,-177.48 121.15,-175.11 127.74,-183.41 131.48,-177.48"/>
</g>
<!-- 3 -->
<g id="node6" class="node">
<title>3</title>
<ellipse fill="none" stroke="black" cx="212.95" cy="-162" rx="27" ry="18"/>
<text text-anchor="middle" x="212.95" y="-158.3" font-family="Times,serif" font-size="14.00">3</text>
</g>
<!-- 2&#45;&gt;3 -->
<g id="edge5" class="edge">
<title>2&#45;&gt;3</title>
<path fill="none" stroke="black" d="M212.95,-215.7C212.95,-207.98 212.95,-198.71 212.95,-190.11"/>
<polygon fill="black" stroke="black" points="216.45,-190.1 212.95,-180.1 209.45,-190.1 216.45,-190.1"/>
</g>
<!-- null0 -->
<g id="node4" class="node">
<title>null0</title>
<ellipse fill="none" stroke="black" cx="27.95" cy="-90" rx="27.9" ry="18"/>
<text text-anchor="middle" x="27.95" y="-86.3" font-family="Times,serif" font-size="14.00">none</text>
</g>
<!-- 1&#45;&gt;null0 -->
<g id="edge3" class="edge">
<title>1&#45;&gt;null0</title>
<path fill="none" stroke="black" d="M86.97,-146.83C76.51,-136.94 62.35,-123.55 50.53,-112.36"/>
<polygon fill="black" stroke="black" points="52.82,-109.71 43.15,-105.38 48.01,-114.8 52.82,-109.71"/>
</g>
<!-- null1 -->
<g id="node5" class="node">
<title>null1</title>
<ellipse fill="none" stroke="black" cx="101.95" cy="-90" rx="27.9" ry="18"/>
<text text-anchor="middle" x="101.95" y="-86.3" font-family="Times,serif" font-size="14.00">none</text>
</g>
<!-- 1&#45;&gt;null1 -->
<g id="edge4" class="edge">
<title>1&#45;&gt;null1</title>
<path fill="none" stroke="black" d="M101.95,-143.7C101.95,-135.98 101.95,-126.71 101.95,-118.11"/>
<polygon fill="black" stroke="black" points="105.45,-118.1 101.95,-108.1 98.45,-118.1 105.45,-118.1"/>
</g>
<!-- null2 -->
<g id="node7" class="node">
<title>null2</title>
<ellipse fill="none" stroke="black" cx="175.95" cy="-90" rx="27.9" ry="18"/>
<text text-anchor="middle" x="175.95" y="-86.3" font-family="Times,serif" font-size="14.00">none</text>
</g>
<!-- 3&#45;&gt;null2 -->
<g id="edge6" class="edge">
<title>3&#45;&gt;null2</title>
<path fill="none" stroke="black" d="M204.37,-144.76C199.88,-136.28 194.3,-125.71 189.27,-116.2"/>
<polygon fill="black" stroke="black" points="192.25,-114.35 184.48,-107.15 186.06,-117.62 192.25,-114.35"/>
</g>
<!-- null3 -->
<g id="node8" class="node">
<title>null3</title>
<ellipse fill="none" stroke="black" cx="249.95" cy="-90" rx="27.9" ry="18"/>
<text text-anchor="middle" x="249.95" y="-86.3" font-family="Times,serif" font-size="14.00">none</text>
</g>
<!-- 3&#45;&gt;null3 -->
<g id="edge7" class="edge">
<title>3&#45;&gt;null3</title>
<path fill="none" stroke="black" d="M221.53,-144.76C226.01,-136.28 231.6,-125.71 236.63,-116.2"/>
<polygon fill="black" stroke="black" points="239.83,-117.62 241.41,-107.15 233.65,-114.35 239.83,-117.62"/>
</g>
<!-- 6 -->
<g id="node10" class="node">
<title>6</title>
<ellipse fill="none" stroke="black" cx="358.95" cy="-162" rx="27" ry="18"/>
<text text-anchor="middle" x="358.95" y="-158.3" font-family="Times,serif" font-size="14.00">6</text>
</g>
<!-- 8&#45;&gt;6 -->
<g id="edge9" class="edge">
<title>8&#45;&gt;6</title>
<path fill="none" stroke="black" d="M358.95,-215.7C358.95,-207.98 358.95,-198.71 358.95,-190.11"/>
<polygon fill="black" stroke="black" points="362.45,-190.1 358.95,-180.1 355.45,-190.1 362.45,-190.1"/>
</g>
<!-- 9 -->
<g id="node17" class="node">
<title>9</title>
<ellipse fill="none" stroke="black" cx="469.95" cy="-162" rx="27" ry="18"/>
<text text-anchor="middle" x="469.95" y="-158.3" font-family="Times,serif" font-size="14.00">9</text>
</g>
<!-- 8&#45;&gt;9 -->
<g id="edge16" class="edge">
<title>8&#45;&gt;9</title>
<path fill="none" stroke="black" d="M378.03,-220.97C395.66,-209.85 422.07,-193.19 442.06,-180.58"/>
<polygon fill="black" stroke="black" points="444.15,-183.41 450.74,-175.11 440.42,-177.48 444.15,-183.41"/>
</g>
<!-- 5 -->
<g id="node11" class="node">
<title>5</title>
<ellipse fill="none" stroke="black" cx="322.95" cy="-90" rx="27" ry="18"/>
<text text-anchor="middle" x="322.95" y="-86.3" font-family="Times,serif" font-size="14.00">5</text>
</g>
<!-- 6&#45;&gt;5 -->
<g id="edge10" class="edge">
<title>6&#45;&gt;5</title>
<path fill="none" stroke="black" d="M350.6,-144.76C346.24,-136.28 340.8,-125.71 335.91,-116.2"/>
<polygon fill="black" stroke="black" points="338.94,-114.44 331.25,-107.15 332.71,-117.64 338.94,-114.44"/>
</g>
<!-- 7 -->
<g id="node14" class="node">
<title>7</title>
<ellipse fill="none" stroke="black" cx="395.95" cy="-90" rx="27" ry="18"/>
<text text-anchor="middle" x="395.95" y="-86.3" font-family="Times,serif" font-size="14.00">7</text>
</g>
<!-- 6&#45;&gt;7 -->
<g id="edge13" class="edge">
<title>6&#45;&gt;7</title>
<path fill="none" stroke="black" d="M367.53,-144.76C372.01,-136.28 377.6,-125.71 382.63,-116.2"/>
<polygon fill="black" stroke="black" points="385.83,-117.62 387.41,-107.15 379.65,-114.35 385.83,-117.62"/>
</g>
<!-- null4 -->
<g id="node12" class="node">
<title>null4</title>
<ellipse fill="none" stroke="black" cx="247.95" cy="-18" rx="27.9" ry="18"/>
<text text-anchor="middle" x="247.95" y="-14.3" font-family="Times,serif" font-size="14.00">none</text>
</g>
<!-- 5&#45;&gt;null4 -->
<g id="edge11" class="edge">
<title>5&#45;&gt;null4</title>
<path fill="none" stroke="black" d="M307.77,-74.83C297.1,-64.87 282.63,-51.37 270.59,-40.14"/>
<polygon fill="black" stroke="black" points="272.8,-37.41 263.1,-33.14 268.02,-42.53 272.8,-37.41"/>
</g>
<!-- null5 -->
<g id="node13" class="node">
<title>null5</title>
<ellipse fill="none" stroke="black" cx="321.95" cy="-18" rx="27.9" ry="18"/>
<text text-anchor="middle" x="321.95" y="-14.3" font-family="Times,serif" font-size="14.00">none</text>
</g>
<!-- 5&#45;&gt;null5 -->
<g id="edge12" class="edge">
<title>5&#45;&gt;null5</title>
<path fill="none" stroke="black" d="M322.7,-71.7C322.59,-63.98 322.46,-54.71 322.33,-46.11"/>
<polygon fill="black" stroke="black" points="325.83,-46.05 322.19,-36.1 318.84,-46.15 325.83,-46.05"/>
</g>
<!-- null6 -->
<g id="node15" class="node">
<title>null6</title>
<ellipse fill="none" stroke="black" cx="395.95" cy="-18" rx="27.9" ry="18"/>
<text text-anchor="middle" x="395.95" y="-14.3" font-family="Times,serif" font-size="14.00">none</text>
</g>
<!-- 7&#45;&gt;null6 -->
<g id="edge14" class="edge">
<title>7&#45;&gt;null6</title>
<path fill="none" stroke="black" d="M395.95,-71.7C395.95,-63.98 395.95,-54.71 395.95,-46.11"/>
<polygon fill="black" stroke="black" points="399.45,-46.1 395.95,-36.1 392.45,-46.1 399.45,-46.1"/>
</g>
<!-- null7 -->
<g id="node16" class="node">
<title>null7</title>
<ellipse fill="none" stroke="black" cx="469.95" cy="-18" rx="27.9" ry="18"/>
<text text-anchor="middle" x="469.95" y="-14.3" font-family="Times,serif" font-size="14.00">none</text>
</g>
<!-- 7&#45;&gt;null7 -->
<g id="edge15" class="edge">
<title>7&#45;&gt;null7</title>
<path fill="none" stroke="black" d="M410.92,-74.83C421.38,-64.94 435.54,-51.55 447.37,-40.36"/>
<polygon fill="black" stroke="black" points="449.88,-42.8 454.74,-33.38 445.07,-37.71 449.88,-42.8"/>
</g>
<!-- null8 -->
<g id="node18" class="node">
<title>null8</title>
<ellipse fill="none" stroke="black" cx="469.95" cy="-90" rx="27.9" ry="18"/>
<text text-anchor="middle" x="469.95" y="-86.3" font-family="Times,serif" font-size="14.00">none</text>
</g>
<!-- 9&#45;&gt;null8 -->
<g id="edge17" class="edge">
<title>9&#45;&gt;null8</title>
<path fill="none" stroke="black" d="M469.95,-143.7C469.95,-135.98 469.95,-126.71 469.95,-118.11"/>
<polygon fill="black" stroke="black" points="473.45,-118.1 469.95,-108.1 466.45,-118.1 473.45,-118.1"/>
</g>
<!-- 10 -->
<g id="node19" class="node">
<title>10</title>
<ellipse fill="none" stroke="black" cx="543.95" cy="-90" rx="27" ry="18"/>
<text text-anchor="middle" x="543.95" y="-86.3" font-family="Times,serif" font-size="14.00">10</text>
</g>
<!-- 9&#45;&gt;10 -->
<g id="edge18" class="edge">
<title>9&#45;&gt;10</title>
<path fill="none" stroke="black" d="M484.92,-146.83C495.45,-136.87 509.73,-123.37 521.6,-112.14"/>
<polygon fill="black" stroke="black" points="524.14,-114.56 528.99,-105.14 519.32,-109.47 524.14,-114.56"/>
</g>
<!-- null9 -->
<g id="node20" class="node">
<title>null9</title>
<ellipse fill="none" stroke="black" cx="543.95" cy="-18" rx="27.9" ry="18"/>
<text text-anchor="middle" x="543.95" y="-14.3" font-family="Times,serif" font-size="14.00">none</text>
</g>
<!-- 10&#45;&gt;null9 -->
<g id="edge19" class="edge">
<title>10&#45;&gt;null9</title>
<path fill="none" stroke="black" d="M543.95,-71.7C543.95,-63.98 543.95,-54.71 543.95,-46.11"/>
<polygon fill="black" stroke="black" points="547.45,-46.1 543.95,-36.1 540.45,-46.1 547.45,-46.1"/>
</g>
<!-- null10 -->
<g id="node21" class="node">
<title>null10</title>
<ellipse fill="none" stroke="black" cx="617.95" cy="-18" rx="27.9" ry="18"/>
<text text-anchor="middle" x="617.95" y="-14.3" font-family="Times,serif" font-size="14.00">none</text>
</g>
<!-- 10&#45;&gt;null10 -->
<g id="edge20" class="edge">
<title>10&#45;&gt;null10</title>
<path fill="none" stroke="black" d="M558.92,-74.83C569.38,-64.94 583.54,-51.55 595.37,-40.36"/>
<polygon fill="black" stroke="black" points="597.88,-42.8 602.74,-33.38 593.07,-37.71 597.88,-42.8"/>
</g>
</g>
</svg>
