<?xml version="1.0" encoding="UTF-8" standalone="no"?>
<!DOCTYPE svg PUBLIC "-//W3C//DTD SVG 1.1//EN"
 "http://www.w3.org/Graphics/SVG/1.1/DTD/svg11.dtd">
<!-- Generated by graphviz version 2.42.3 (0)
 -->
<!-- Title: %3 Pages: 1 -->
<svg width="286pt" height="188pt"
 viewBox="0.00 0.00 285.90 188.00" xmlns="http://www.w3.org/2000/svg" xmlns:xlink="http://www.w3.org/1999/xlink">
<g id="graph0" class="graph" transform="scale(1 1) rotate(0) translate(4 184)">
<title>%3</title>
<polygon fill="white" stroke="transparent" points="-4,4 -4,-184 281.9,-184 281.9,4 -4,4"/>
<!-- 2 -->
<g id="node1" class="node">
<title>2</title>
<ellipse fill="none" stroke="black" cx="138.95" cy="-162" rx="27" ry="18"/>
<text text-anchor="middle" x="138.95" y="-158.3" font-family="Times,serif" font-size="14.00">2</text>
</g>
<!-- 1 -->
<g id="node2" class="node">
<title>1</title>
<ellipse fill="none" stroke="black" cx="101.95" cy="-90" rx="27" ry="18"/>
<text text-anchor="middle" x="101.95" y="-86.3" font-family="Times,serif" font-size="14.00">1</text>
</g>
<!-- 2&#45;&gt;1 -->
<g id="edge1" class="edge">
<title>2&#45;&gt;1</title>
<path fill="none" stroke="black" d="M130.37,-144.76C125.88,-136.28 120.3,-125.71 115.27,-116.2"/>
<polygon fill="black" stroke="black" points="118.25,-114.35 110.48,-107.15 112.06,-117.62 118.25,-114.35"/>
</g>
<!-- 3 -->
<g id="node5" class="node">
<title>3</title>
<ellipse fill="none" stroke="black" cx="175.95" cy="-90" rx="27" ry="18"/>
<text text-anchor="middle" x="175.95" y="-86.3" font-family="Times,serif" font-size="14.00">3</text>
</g>
<!-- 2&#45;&gt;3 -->
<g id="edge4" class="edge">
<title>2&#45;&gt;3</title>
<path fill="none" stroke="black" d="M147.53,-144.76C152.01,-136.28 157.6,-125.71 162.63,-116.2"/>
<polygon fill="black" stroke="black" points="165.83,-117.62 167.41,-107.15 159.65,-114.35 165.83,-117.62"/>
</g>
<!-- null0 -->
<g id="node3" class="node">
<title>null0</title>
<ellipse fill="none" stroke="black" cx="27.95" cy="-18" rx="27.9" ry="18"/>
<text text-anchor="middle" x="27.95" y="-14.3" font-family="Times,serif" font-size="14.00">none</text>
</g>
<!-- 1&#45;&gt;null0 -->
<g id="edge2" class="edge">
<title>1&#45;&gt;null0</title>
<path fill="none" stroke="black" d="M86.97,-74.83C76.51,-64.94 62.35,-51.55 50.53,-40.36"/>
<polygon fill="black" stroke="black" points="52.82,-37.71 43.15,-33.38 48.01,-42.8 52.82,-37.71"/>
</g>
<!-- null1 -->
<g id="node4" class="node">
<title>null1</title>
<ellipse fill="none" stroke="black" cx="101.95" cy="-18" rx="27.9" ry="18"/>
<text text-anchor="middle" x="101.95" y="-14.3" font-family="Times,serif" font-size="14.00">none</text>
</g>
<!-- 1&#45;&gt;null1 -->
<g id="edge3" class="edge">
<title>1&#45;&gt;null1</title>
<path fill="none" stroke="black" d="M101.95,-71.7C101.95,-63.98 101.95,-54.71 101.95,-46.11"/>
<polygon fill="black" stroke="black" points="105.45,-46.1 101.95,-36.1 98.45,-46.1 105.45,-46.1"/>
</g>
<!-- null2 -->
<g id="node6" class="node">
<title>null2</title>
<ellipse fill="none" stroke="black" cx="175.95" cy="-18" rx="27.9" ry="18"/>
<text text-anchor="middle" x="175.95" y="-14.3" font-family="Times,serif" font-size="14.00">none</text>
</g>
<!-- 3&#45;&gt;null2 -->
<g id="edge5" class="edge">
<title>3&#45;&gt;null2</title>
<path fill="none" stroke="black" d="M175.95,-71.7C175.95,-63.98 175.95,-54.71 175.95,-46.11"/>
<polygon fill="black" stroke="black" points="179.45,-46.1 175.95,-36.1 172.45,-46.1 179.45,-46.1"/>
</g>
<!-- null3 -->
<g id="node7" class="node">
<title>null3</title>
<ellipse fill="none" stroke="black" cx="249.95" cy="-18" rx="27.9" ry="18"/>
<text text-anchor="middle" x="249.95" y="-14.3" font-family="Times,serif" font-size="14.00">none</text>
</g>
<!-- 3&#45;&gt;null3 -->
<g id="edge6" class="edge">
<title>3&#45;&gt;null3</title>
<path fill="none" stroke="black" d="M190.92,-74.83C201.38,-64.94 215.54,-51.55 227.37,-40.36"/>
<polygon fill="black" stroke="black" points="229.88,-42.8 234.74,-33.38 225.07,-37.71 229.88,-42.8"/>
</g>
</g>
</svg>
