<?xml version="1.0" encoding="UTF-8" standalone="no"?>
<!DOCTYPE svg PUBLIC "-//W3C//DTD SVG 1.1//EN"
 "http://www.w3.org/Graphics/SVG/1.1/DTD/svg11.dtd">
<!-- Generated by graphviz version 2.42.3 (0)
 -->
<!-- Title: %3 Pages: 1 -->
<svg width="400pt" height="514pt"
 viewBox="0.00 0.00 400.31 513.74" xmlns="http://www.w3.org/2000/svg" xmlns:xlink="http://www.w3.org/1999/xlink">
<g id="graph0" class="graph" transform="scale(1 1) rotate(0) translate(4 509.74)">
<title>%3</title>
<polygon fill="white" stroke="transparent" points="-4,4 -4,-509.74 396.31,-509.74 396.31,4 -4,4"/>
<!-- init -->
<g id="node1" class="node">
<title>init</title>
<ellipse fill="none" stroke="black" cx="75.39" cy="-487.74" rx="74.99" ry="18"/>
<text text-anchor="middle" x="75.39" y="-484.04" font-family="Times,serif" font-size="14.00">clear visited mark</text>
</g>
<!-- loop1 -->
<g id="node2" class="node">
<title>loop1</title>
<ellipse fill="none" stroke="black" cx="75.39" cy="-414.74" rx="75.29" ry="18"/>
<text text-anchor="middle" x="75.39" y="-411.04" font-family="Times,serif" font-size="14.00">for node unvisited</text>
</g>
<!-- init&#45;&gt;loop1 -->
<g id="edge1" class="edge">
<title>init&#45;&gt;loop1</title>
<path fill="none" stroke="black" d="M75.39,-469.55C75.39,-461.53 75.39,-451.79 75.39,-442.81"/>
<polygon fill="black" stroke="black" points="78.89,-442.77 75.39,-432.77 71.89,-442.77 78.89,-442.77"/>
</g>
<!-- func -->
<g id="node3" class="node">
<title>func</title>
<ellipse fill="none" stroke="black" cx="75.39" cy="-341.74" rx="68.49" ry="18"/>
<text text-anchor="middle" x="75.39" y="-338.04" font-family="Times,serif" font-size="14.00">call function dfs</text>
</g>
<!-- loop1&#45;&gt;func -->
<g id="edge2" class="edge">
<title>loop1&#45;&gt;func</title>
<path fill="none" stroke="black" d="M75.39,-396.55C75.39,-388.53 75.39,-378.79 75.39,-369.81"/>
<polygon fill="black" stroke="black" points="78.89,-369.77 75.39,-359.77 71.89,-369.77 78.89,-369.77"/>
</g>
<!-- markroot -->
<g id="node4" class="node">
<title>markroot</title>
<ellipse fill="none" stroke="black" cx="289.39" cy="-487.74" rx="71.49" ry="18"/>
<text text-anchor="middle" x="289.39" y="-484.04" font-family="Times,serif" font-size="14.00">mark root visited</text>
</g>
<!-- func&#45;&gt;markroot -->
<g id="edge11" class="edge">
<title>func&#45;&gt;markroot</title>
<path fill="none" stroke="black" stroke-dasharray="1,5" d="M102.37,-358.31C119.28,-368.49 141.25,-382.51 159.39,-396.74 177.7,-411.09 178.8,-418.76 197.39,-432.74 213.88,-445.13 233.44,-456.96 250.27,-466.38"/>
<polygon fill="black" stroke="black" points="248.85,-469.59 259.3,-471.34 252.23,-463.46 248.85,-469.59"/>
</g>
<!-- pushroot -->
<g id="node5" class="node">
<title>pushroot</title>
<ellipse fill="none" stroke="black" cx="289.39" cy="-414.74" rx="83.39" ry="18"/>
<text text-anchor="middle" x="289.39" y="-411.04" font-family="Times,serif" font-size="14.00">push root into queue</text>
</g>
<!-- markroot&#45;&gt;pushroot -->
<g id="edge3" class="edge">
<title>markroot&#45;&gt;pushroot</title>
<path fill="none" stroke="black" d="M289.39,-469.55C289.39,-461.53 289.39,-451.79 289.39,-442.81"/>
<polygon fill="black" stroke="black" points="292.89,-442.77 289.39,-432.77 285.89,-442.77 292.89,-442.77"/>
</g>
<!-- empty -->
<g id="node6" class="node">
<title>empty</title>
<ellipse fill="none" stroke="black" cx="289.39" cy="-341.74" rx="64.99" ry="18"/>
<text text-anchor="middle" x="289.39" y="-338.04" font-family="Times,serif" font-size="14.00">is queue empty</text>
</g>
<!-- pushroot&#45;&gt;empty -->
<g id="edge4" class="edge">
<title>pushroot&#45;&gt;empty</title>
<path fill="none" stroke="black" d="M289.39,-396.55C289.39,-388.53 289.39,-378.79 289.39,-369.81"/>
<polygon fill="black" stroke="black" points="292.89,-369.77 289.39,-359.77 285.89,-369.77 292.89,-369.77"/>
</g>
<!-- front -->
<g id="node7" class="node">
<title>front</title>
<ellipse fill="none" stroke="black" cx="216.39" cy="-254.74" rx="74.19" ry="18"/>
<text text-anchor="middle" x="216.39" y="-251.04" font-family="Times,serif" font-size="14.00">get front of queue</text>
</g>
<!-- empty&#45;&gt;front -->
<g id="edge5" class="edge">
<title>empty&#45;&gt;front</title>
<path fill="none" stroke="black" d="M274.97,-323.95C264.27,-311.49 249.52,-294.31 237.5,-280.31"/>
<polygon fill="black" stroke="black" points="239.96,-277.8 230.79,-272.5 234.65,-282.37 239.96,-277.8"/>
<text text-anchor="middle" x="267.89" y="-294.54" font-family="Times,serif" font-size="14.00">Yes</text>
</g>
<!-- loop2 -->
<g id="node8" class="node">
<title>loop2</title>
<ellipse fill="none" stroke="black" cx="271.39" cy="-172.87" rx="120.83" ry="26.74"/>
<text text-anchor="middle" x="271.39" y="-176.67" font-family="Times,serif" font-size="14.00">for node unvisited and</text>
<text text-anchor="middle" x="271.39" y="-161.67" font-family="Times,serif" font-size="14.00">connected with current node</text>
</g>
<!-- front&#45;&gt;loop2 -->
<g id="edge6" class="edge">
<title>front&#45;&gt;loop2</title>
<path fill="none" stroke="black" d="M228.06,-236.8C233.81,-228.44 240.97,-218.05 247.8,-208.13"/>
<polygon fill="black" stroke="black" points="250.89,-209.82 253.68,-199.59 245.12,-205.85 250.89,-209.82"/>
</g>
<!-- loop2&#45;&gt;empty -->
<g id="edge10" class="edge">
<title>loop2&#45;&gt;empty</title>
<path fill="none" stroke="black" d="M285.81,-199.65C291.21,-210.71 296.68,-224 299.39,-236.74 304.88,-262.54 300.91,-292.59 296.45,-313.74"/>
<polygon fill="black" stroke="black" points="293,-313.1 294.19,-323.63 299.83,-314.66 293,-313.1"/>
<text text-anchor="middle" x="326.39" y="-251.04" font-family="Times,serif" font-size="14.00">loop end</text>
</g>
<!-- marknode -->
<g id="node9" class="node">
<title>marknode</title>
<ellipse fill="none" stroke="black" cx="211.39" cy="-91" rx="91.78" ry="18"/>
<text text-anchor="middle" x="211.39" y="-87.3" font-family="Times,serif" font-size="14.00">mark new node visited</text>
</g>
<!-- loop2&#45;&gt;marknode -->
<g id="edge7" class="edge">
<title>loop2&#45;&gt;marknode</title>
<path fill="none" stroke="black" d="M252.08,-146.16C245.05,-136.8 237.12,-126.25 230.14,-116.96"/>
<polygon fill="black" stroke="black" points="232.86,-114.74 224.05,-108.85 227.26,-118.95 232.86,-114.74"/>
</g>
<!-- pushnode -->
<g id="node10" class="node">
<title>pushnode</title>
<ellipse fill="none" stroke="black" cx="271.39" cy="-18" rx="86.38" ry="18"/>
<text text-anchor="middle" x="271.39" y="-14.3" font-family="Times,serif" font-size="14.00">push node into queue</text>
</g>
<!-- marknode&#45;&gt;pushnode -->
<g id="edge8" class="edge">
<title>marknode&#45;&gt;pushnode</title>
<path fill="none" stroke="black" d="M225.61,-73.17C232.98,-64.46 242.11,-53.65 250.28,-43.98"/>
<polygon fill="black" stroke="black" points="253.08,-46.1 256.86,-36.2 247.73,-41.58 253.08,-46.1"/>
</g>
<!-- pushnode&#45;&gt;loop2 -->
<g id="edge9" class="edge">
<title>pushnode&#45;&gt;loop2</title>
<path fill="none" stroke="black" d="M288.71,-35.76C297.66,-45.64 307.66,-58.94 312.39,-73 317.5,-88.16 316.95,-93.66 312.39,-109 309.41,-119.02 304.27,-128.94 298.62,-137.83"/>
<polygon fill="black" stroke="black" points="295.56,-136.11 292.86,-146.35 301.36,-140.03 295.56,-136.11"/>
</g>
</g>
</svg>
