<?xml version="1.0" encoding="UTF-8" standalone="no"?>
<!DOCTYPE svg PUBLIC "-//W3C//DTD SVG 1.1//EN"
 "http://www.w3.org/Graphics/SVG/1.1/DTD/svg11.dtd">
<!-- Generated by graphviz version 2.42.3 (0)
 -->
<!-- Title: %3 Pages: 1 -->
<svg width="450pt" height="278pt"
 viewBox="0.00 0.00 450.19 277.74" xmlns="http://www.w3.org/2000/svg" xmlns:xlink="http://www.w3.org/1999/xlink">
<g id="graph0" class="graph" transform="scale(1 1) rotate(0) translate(4 273.74)">
<title>%3</title>
<polygon fill="white" stroke="transparent" points="-4,4 -4,-273.74 446.19,-273.74 446.19,4 -4,4"/>
<!-- init -->
<g id="node1" class="node">
<title>init</title>
<ellipse fill="none" stroke="black" cx="75.39" cy="-251.74" rx="74.99" ry="18"/>
<text text-anchor="middle" x="75.39" y="-248.04" font-family="Times,serif" font-size="14.00">clear visited mark</text>
</g>
<!-- loop1 -->
<g id="node2" class="node">
<title>loop1</title>
<ellipse fill="none" stroke="black" cx="75.39" cy="-179.74" rx="75.29" ry="18"/>
<text text-anchor="middle" x="75.39" y="-176.04" font-family="Times,serif" font-size="14.00">for node unvisited</text>
</g>
<!-- init&#45;&gt;loop1 -->
<g id="edge1" class="edge">
<title>init&#45;&gt;loop1</title>
<path fill="none" stroke="black" d="M75.39,-233.44C75.39,-225.72 75.39,-216.45 75.39,-207.85"/>
<polygon fill="black" stroke="black" points="78.89,-207.84 75.39,-197.84 71.89,-207.84 78.89,-207.84"/>
</g>
<!-- func -->
<g id="node3" class="node">
<title>func</title>
<ellipse fill="none" stroke="black" cx="75.39" cy="-98.87" rx="68.49" ry="18"/>
<text text-anchor="middle" x="75.39" y="-95.17" font-family="Times,serif" font-size="14.00">call function dfs</text>
</g>
<!-- loop1&#45;&gt;func -->
<g id="edge2" class="edge">
<title>loop1&#45;&gt;func</title>
<path fill="none" stroke="black" d="M75.39,-161.63C75.39,-151.6 75.39,-138.71 75.39,-127.29"/>
<polygon fill="black" stroke="black" points="78.89,-126.95 75.39,-116.95 71.89,-126.95 78.89,-126.95"/>
</g>
<!-- print -->
<g id="node4" class="node">
<title>print</title>
<ellipse fill="none" stroke="black" cx="368.39" cy="-251.74" rx="46.59" ry="18"/>
<text text-anchor="middle" x="368.39" y="-248.04" font-family="Times,serif" font-size="14.00">print node</text>
</g>
<!-- func&#45;&gt;print -->
<g id="edge7" class="edge">
<title>func&#45;&gt;print</title>
<path fill="none" stroke="black" stroke-dasharray="1,5" d="M96.15,-116.18C123.59,-137.17 174.01,-173.77 221.39,-197.74 253.91,-214.19 292.77,-227.97 322.37,-237.35"/>
<polygon fill="black" stroke="black" points="321.44,-240.72 332.03,-240.36 323.52,-234.04 321.44,-240.72"/>
</g>
<!-- marknode -->
<g id="node5" class="node">
<title>marknode</title>
<ellipse fill="none" stroke="black" cx="305.39" cy="-179.74" rx="74.99" ry="18"/>
<text text-anchor="middle" x="305.39" y="-176.04" font-family="Times,serif" font-size="14.00">mark node visited</text>
</g>
<!-- print&#45;&gt;marknode -->
<g id="edge3" class="edge">
<title>print&#45;&gt;marknode</title>
<path fill="none" stroke="black" d="M353.78,-234.5C345.98,-225.84 336.22,-214.99 327.51,-205.31"/>
<polygon fill="black" stroke="black" points="330.1,-202.96 320.8,-197.86 324.89,-207.64 330.1,-202.96"/>
</g>
<!-- loop2 -->
<g id="node6" class="node">
<title>loop2</title>
<ellipse fill="none" stroke="black" cx="282.39" cy="-98.87" rx="120.83" ry="26.74"/>
<text text-anchor="middle" x="282.39" y="-102.67" font-family="Times,serif" font-size="14.00">for node unvisited and</text>
<text text-anchor="middle" x="282.39" y="-87.67" font-family="Times,serif" font-size="14.00">connected with current node</text>
</g>
<!-- marknode&#45;&gt;loop2 -->
<g id="edge4" class="edge">
<title>marknode&#45;&gt;loop2</title>
<path fill="none" stroke="black" d="M300.4,-161.63C298.17,-153.97 295.45,-144.65 292.81,-135.59"/>
<polygon fill="black" stroke="black" points="296.16,-134.57 290,-125.95 289.44,-136.53 296.16,-134.57"/>
</g>
<!-- call -->
<g id="node7" class="node">
<title>call</title>
<ellipse fill="none" stroke="black" cx="356.39" cy="-18" rx="85.59" ry="18"/>
<text text-anchor="middle" x="356.39" y="-14.3" font-family="Times,serif" font-size="14.00">call dfs for new node</text>
</g>
<!-- loop2&#45;&gt;call -->
<g id="edge5" class="edge">
<title>loop2&#45;&gt;call</title>
<path fill="none" stroke="black" d="M306.21,-72.48C314.93,-63.19 324.77,-52.71 333.41,-43.5"/>
<polygon fill="black" stroke="black" points="336.04,-45.81 340.33,-36.12 330.94,-41.02 336.04,-45.81"/>
</g>
<!-- call&#45;&gt;print -->
<g id="edge6" class="edge">
<title>call&#45;&gt;print</title>
<path fill="none" stroke="black" d="M381.35,-35.26C393.13,-44.47 405.99,-57.12 412.39,-72 434.84,-124.14 404.95,-189.98 384.55,-225.4"/>
<polygon fill="black" stroke="black" points="381.46,-223.75 379.35,-234.14 387.47,-227.33 381.46,-223.75"/>
</g>
</g>
</svg>
