<?xml version="1.0" encoding="UTF-8" standalone="no"?>
<!DOCTYPE svg PUBLIC "-//W3C//DTD SVG 1.1//EN"
 "http://www.w3.org/Graphics/SVG/1.1/DTD/svg11.dtd">
<!-- Generated by graphviz version 2.42.3 (0)
 -->
<!-- Title: %3 Pages: 1 -->
<svg width="419pt" height="656pt"
 viewBox="0.00 0.00 418.59 656.00" xmlns="http://www.w3.org/2000/svg" xmlns:xlink="http://www.w3.org/1999/xlink">
<g id="graph0" class="graph" transform="scale(1 1) rotate(0) translate(4 652)">
<title>%3</title>
<polygon fill="white" stroke="transparent" points="-4,4 -4,-652 414.59,-652 414.59,4 -4,4"/>
<!-- init -->
<g id="node1" class="node">
<title>init</title>
<ellipse fill="none" stroke="black" cx="75.39" cy="-630" rx="74.99" ry="18"/>
<text text-anchor="middle" x="75.39" y="-626.3" font-family="Times,serif" font-size="14.00">clear visited mark</text>
</g>
<!-- loop1 -->
<g id="node2" class="node">
<title>loop1</title>
<ellipse fill="none" stroke="black" cx="75.39" cy="-557" rx="75.29" ry="18"/>
<text text-anchor="middle" x="75.39" y="-553.3" font-family="Times,serif" font-size="14.00">for node unvisited</text>
</g>
<!-- init&#45;&gt;loop1 -->
<g id="edge1" class="edge">
<title>init&#45;&gt;loop1</title>
<path fill="none" stroke="black" d="M75.39,-611.81C75.39,-603.79 75.39,-594.05 75.39,-585.07"/>
<polygon fill="black" stroke="black" points="78.89,-585.03 75.39,-575.03 71.89,-585.03 78.89,-585.03"/>
</g>
<!-- func -->
<g id="node3" class="node">
<title>func</title>
<ellipse fill="none" stroke="black" cx="75.39" cy="-484" rx="68.49" ry="18"/>
<text text-anchor="middle" x="75.39" y="-480.3" font-family="Times,serif" font-size="14.00">call function dfs</text>
</g>
<!-- loop1&#45;&gt;func -->
<g id="edge2" class="edge">
<title>loop1&#45;&gt;func</title>
<path fill="none" stroke="black" d="M75.39,-538.81C75.39,-530.79 75.39,-521.05 75.39,-512.07"/>
<polygon fill="black" stroke="black" points="78.89,-512.03 75.39,-502.03 71.89,-512.03 78.89,-512.03"/>
</g>
<!-- printroot -->
<g id="node4" class="node">
<title>printroot</title>
<ellipse fill="none" stroke="black" cx="277.39" cy="-630" rx="44.39" ry="18"/>
<text text-anchor="middle" x="277.39" y="-626.3" font-family="Times,serif" font-size="14.00">print root</text>
</g>
<!-- func&#45;&gt;printroot -->
<g id="edge13" class="edge">
<title>func&#45;&gt;printroot</title>
<path fill="none" stroke="black" stroke-dasharray="1,5" d="M102.37,-500.57C119.28,-510.75 141.25,-524.77 159.39,-539 177.7,-553.35 179.25,-560.44 197.39,-575 212.58,-587.18 230.46,-599.43 245.46,-609.18"/>
<polygon fill="black" stroke="black" points="243.62,-612.15 253.92,-614.6 247.4,-606.26 243.62,-612.15"/>
</g>
<!-- markroot -->
<g id="node5" class="node">
<title>markroot</title>
<ellipse fill="none" stroke="black" cx="277.39" cy="-557" rx="71.49" ry="18"/>
<text text-anchor="middle" x="277.39" y="-553.3" font-family="Times,serif" font-size="14.00">mark root visited</text>
</g>
<!-- printroot&#45;&gt;markroot -->
<g id="edge3" class="edge">
<title>printroot&#45;&gt;markroot</title>
<path fill="none" stroke="black" d="M277.39,-611.81C277.39,-603.79 277.39,-594.05 277.39,-585.07"/>
<polygon fill="black" stroke="black" points="280.89,-585.03 277.39,-575.03 273.89,-585.03 280.89,-585.03"/>
</g>
<!-- pushroot -->
<g id="node6" class="node">
<title>pushroot</title>
<ellipse fill="none" stroke="black" cx="277.39" cy="-484" rx="80.69" ry="18"/>
<text text-anchor="middle" x="277.39" y="-480.3" font-family="Times,serif" font-size="14.00">push root into stack</text>
</g>
<!-- markroot&#45;&gt;pushroot -->
<g id="edge4" class="edge">
<title>markroot&#45;&gt;pushroot</title>
<path fill="none" stroke="black" d="M277.39,-538.81C277.39,-530.79 277.39,-521.05 277.39,-512.07"/>
<polygon fill="black" stroke="black" points="280.89,-512.03 277.39,-502.03 273.89,-512.03 280.89,-512.03"/>
</g>
<!-- top -->
<g id="node7" class="node">
<title>top</title>
<ellipse fill="none" stroke="black" cx="277.39" cy="-411" rx="65.79" ry="18"/>
<text text-anchor="middle" x="277.39" y="-407.3" font-family="Times,serif" font-size="14.00">get top of stack</text>
</g>
<!-- pushroot&#45;&gt;top -->
<g id="edge5" class="edge">
<title>pushroot&#45;&gt;top</title>
<path fill="none" stroke="black" d="M277.39,-465.81C277.39,-457.79 277.39,-448.05 277.39,-439.07"/>
<polygon fill="black" stroke="black" points="280.89,-439.03 277.39,-429.03 273.89,-439.03 280.89,-439.03"/>
</g>
<!-- expandable -->
<g id="node8" class="node">
<title>expandable</title>
<ellipse fill="none" stroke="black" cx="244.39" cy="-324" rx="107.48" ry="18"/>
<text text-anchor="middle" x="244.39" y="-320.3" font-family="Times,serif" font-size="14.00">is the node able to expand?</text>
</g>
<!-- top&#45;&gt;expandable -->
<g id="edge6" class="edge">
<title>top&#45;&gt;expandable</title>
<path fill="none" stroke="black" d="M267.13,-392.93C264.05,-387.34 260.84,-381.02 258.39,-375 255.46,-367.76 252.91,-359.7 250.82,-352.2"/>
<polygon fill="black" stroke="black" points="254.18,-351.23 248.26,-342.44 247.41,-353 254.18,-351.23"/>
</g>
<!-- expandable&#45;&gt;top -->
<g id="edge8" class="edge">
<title>expandable&#45;&gt;top</title>
<path fill="none" stroke="black" d="M251.06,-342.18C255.62,-353.92 261.76,-369.73 266.96,-383.13"/>
<polygon fill="black" stroke="black" points="263.83,-384.74 270.72,-392.8 270.36,-382.21 263.83,-384.74"/>
<text text-anchor="middle" x="271.89" y="-363.8" font-family="Times,serif" font-size="14.00">No</text>
</g>
<!-- expand -->
<g id="node9" class="node">
<title>expand</title>
<ellipse fill="none" stroke="black" cx="261.39" cy="-237" rx="57.69" ry="18"/>
<text text-anchor="middle" x="261.39" y="-233.3" font-family="Times,serif" font-size="14.00">get new node</text>
</g>
<!-- expandable&#45;&gt;expand -->
<g id="edge7" class="edge">
<title>expandable&#45;&gt;expand</title>
<path fill="none" stroke="black" d="M247.83,-305.8C250.16,-294.16 253.28,-278.55 255.95,-265.24"/>
<polygon fill="black" stroke="black" points="259.43,-265.67 257.96,-255.18 252.56,-264.29 259.43,-265.67"/>
<text text-anchor="middle" x="264.89" y="-276.8" font-family="Times,serif" font-size="14.00">Yes</text>
</g>
<!-- printnode -->
<g id="node10" class="node">
<title>printnode</title>
<ellipse fill="none" stroke="black" cx="273.39" cy="-164" rx="46.59" ry="18"/>
<text text-anchor="middle" x="273.39" y="-160.3" font-family="Times,serif" font-size="14.00">print node</text>
</g>
<!-- expand&#45;&gt;printnode -->
<g id="edge9" class="edge">
<title>expand&#45;&gt;printnode</title>
<path fill="none" stroke="black" d="M264.3,-218.81C265.65,-210.79 267.3,-201.05 268.82,-192.07"/>
<polygon fill="black" stroke="black" points="272.3,-192.47 270.52,-182.03 265.4,-191.31 272.3,-192.47"/>
</g>
<!-- marknode -->
<g id="node11" class="node">
<title>marknode</title>
<ellipse fill="none" stroke="black" cx="276.39" cy="-91" rx="74.99" ry="18"/>
<text text-anchor="middle" x="276.39" y="-87.3" font-family="Times,serif" font-size="14.00">mark node visited</text>
</g>
<!-- printnode&#45;&gt;marknode -->
<g id="edge10" class="edge">
<title>printnode&#45;&gt;marknode</title>
<path fill="none" stroke="black" d="M274.12,-145.81C274.46,-137.79 274.87,-128.05 275.25,-119.07"/>
<polygon fill="black" stroke="black" points="278.75,-119.17 275.67,-109.03 271.75,-118.87 278.75,-119.17"/>
</g>
<!-- pushnode -->
<g id="node12" class="node">
<title>pushnode</title>
<ellipse fill="none" stroke="black" cx="327.39" cy="-18" rx="83.39" ry="18"/>
<text text-anchor="middle" x="327.39" y="-14.3" font-family="Times,serif" font-size="14.00">push node into stack</text>
</g>
<!-- marknode&#45;&gt;pushnode -->
<g id="edge11" class="edge">
<title>marknode&#45;&gt;pushnode</title>
<path fill="none" stroke="black" d="M288.48,-73.17C294.61,-64.63 302.2,-54.08 309.03,-44.56"/>
<polygon fill="black" stroke="black" points="312.05,-46.36 315.04,-36.2 306.36,-42.28 312.05,-46.36"/>
</g>
<!-- pushnode&#45;&gt;top -->
<g id="edge12" class="edge">
<title>pushnode&#45;&gt;top</title>
<path fill="none" stroke="black" d="M348.84,-35.52C363.17,-48.56 379.39,-68.15 379.39,-90 379.39,-325 379.39,-325 379.39,-325 379.39,-355.93 351.37,-377.79 324.7,-391.59"/>
<polygon fill="black" stroke="black" points="322.83,-388.61 315.37,-396.13 325.9,-394.9 322.83,-388.61"/>
</g>
</g>
</svg>
