<?xml version="1.0" encoding="UTF-8" standalone="no"?>
<!DOCTYPE svg PUBLIC "-//W3C//DTD SVG 1.1//EN"
 "http://www.w3.org/Graphics/SVG/1.1/DTD/svg11.dtd">
<!-- Generated by graphviz version 2.42.3 (0)
 -->
<!-- Title: %3 Pages: 1 -->
<svg width="233pt" height="620pt"
 viewBox="0.00 0.00 233.00 620.00" xmlns="http://www.w3.org/2000/svg" xmlns:xlink="http://www.w3.org/1999/xlink">
<g id="graph0" class="graph" transform="scale(1 1) rotate(0) translate(4 616)">
<title>%3</title>
<polygon fill="white" stroke="transparent" points="-4,4 -4,-616 229,-616 229,4 -4,4"/>
<!-- 11 -->
<g id="node1" class="node">
<title>11</title>
<ellipse fill="none" stroke="black" cx="27" cy="-594" rx="27" ry="18"/>
<text text-anchor="middle" x="27" y="-590.3" font-family="Times,serif" font-size="14.00">11</text>
</g>
<!-- 1 -->
<g id="node2" class="node">
<title>1</title>
<ellipse fill="none" stroke="black" cx="140" cy="-306" rx="27" ry="18"/>
<text text-anchor="middle" x="140" y="-302.3" font-family="Times,serif" font-size="14.00">1</text>
</g>
<!-- 2 -->
<g id="node3" class="node">
<title>2</title>
<ellipse fill="none" stroke="black" cx="113" cy="-162" rx="27" ry="18"/>
<text text-anchor="middle" x="113" y="-158.3" font-family="Times,serif" font-size="14.00">2</text>
</g>
<!-- 1&#45;&gt;2 -->
<g id="edge1" class="edge">
<title>1&#45;&gt;2</title>
<path fill="none" stroke="black" d="M136.74,-287.87C132.14,-263.67 123.69,-219.21 118.21,-190.39"/>
<polygon fill="black" stroke="black" points="121.57,-189.36 116.27,-180.19 114.7,-190.67 121.57,-189.36"/>
</g>
<!-- 3 -->
<g id="node4" class="node">
<title>3</title>
<ellipse fill="none" stroke="black" cx="168" cy="-234" rx="27" ry="18"/>
<text text-anchor="middle" x="168" y="-230.3" font-family="Times,serif" font-size="14.00">3</text>
</g>
<!-- 1&#45;&gt;3 -->
<g id="edge2" class="edge">
<title>1&#45;&gt;3</title>
<path fill="none" stroke="black" d="M146.64,-288.41C149.91,-280.22 153.94,-270.14 157.62,-260.95"/>
<polygon fill="black" stroke="black" points="160.95,-262.05 161.41,-251.47 154.45,-259.45 160.95,-262.05"/>
</g>
<!-- 4 -->
<g id="node5" class="node">
<title>4</title>
<ellipse fill="none" stroke="black" cx="140" cy="-90" rx="27" ry="18"/>
<text text-anchor="middle" x="140" y="-86.3" font-family="Times,serif" font-size="14.00">4</text>
</g>
<!-- 2&#45;&gt;4 -->
<g id="edge4" class="edge">
<title>2&#45;&gt;4</title>
<path fill="none" stroke="black" d="M119.4,-144.41C122.51,-136.34 126.33,-126.43 129.83,-117.35"/>
<polygon fill="black" stroke="black" points="133.13,-118.55 133.46,-107.96 126.6,-116.03 133.13,-118.55"/>
</g>
<!-- 3&#45;&gt;2 -->
<g id="edge3" class="edge">
<title>3&#45;&gt;2</title>
<path fill="none" stroke="black" d="M156.07,-217.81C148.79,-208.55 139.34,-196.52 131.15,-186.09"/>
<polygon fill="black" stroke="black" points="133.84,-183.86 124.91,-178.16 128.34,-188.18 133.84,-183.86"/>
</g>
<!-- 3&#45;&gt;4 -->
<g id="edge5" class="edge">
<title>3&#45;&gt;4</title>
<path fill="none" stroke="black" d="M164.62,-215.87C159.83,-191.56 151.01,-146.82 145.33,-118.01"/>
<polygon fill="black" stroke="black" points="148.76,-117.32 143.39,-108.19 141.89,-118.68 148.76,-117.32"/>
</g>
<!-- 5 -->
<g id="node6" class="node">
<title>5</title>
<ellipse fill="none" stroke="black" cx="140" cy="-18" rx="27" ry="18"/>
<text text-anchor="middle" x="140" y="-14.3" font-family="Times,serif" font-size="14.00">5</text>
</g>
<!-- 4&#45;&gt;5 -->
<g id="edge6" class="edge">
<title>4&#45;&gt;5</title>
<path fill="none" stroke="black" d="M140,-71.7C140,-63.98 140,-54.71 140,-46.11"/>
<polygon fill="black" stroke="black" points="143.5,-46.1 140,-36.1 136.5,-46.1 143.5,-46.1"/>
</g>
<!-- 6 -->
<g id="node7" class="node">
<title>6</title>
<ellipse fill="none" stroke="black" cx="99" cy="-594" rx="27" ry="18"/>
<text text-anchor="middle" x="99" y="-590.3" font-family="Times,serif" font-size="14.00">6</text>
</g>
<!-- 7 -->
<g id="node8" class="node">
<title>7</title>
<ellipse fill="none" stroke="black" cx="85" cy="-522" rx="27" ry="18"/>
<text text-anchor="middle" x="85" y="-518.3" font-family="Times,serif" font-size="14.00">7</text>
</g>
<!-- 6&#45;&gt;7 -->
<g id="edge7" class="edge">
<title>6&#45;&gt;7</title>
<path fill="none" stroke="black" d="M95.61,-576.05C94.07,-568.35 92.21,-559.03 90.47,-550.36"/>
<polygon fill="black" stroke="black" points="93.85,-549.39 88.46,-540.28 86.98,-550.77 93.85,-549.39"/>
</g>
<!-- 12 -->
<g id="node10" class="node">
<title>12</title>
<ellipse fill="none" stroke="black" cx="157" cy="-522" rx="27" ry="18"/>
<text text-anchor="middle" x="157" y="-518.3" font-family="Times,serif" font-size="14.00">12</text>
</g>
<!-- 6&#45;&gt;12 -->
<g id="edge9" class="edge">
<title>6&#45;&gt;12</title>
<path fill="none" stroke="black" d="M111.59,-577.81C119.26,-568.55 129.23,-556.52 137.86,-546.09"/>
<polygon fill="black" stroke="black" points="140.75,-548.09 144.44,-538.16 135.36,-543.63 140.75,-548.09"/>
</g>
<!-- 8 -->
<g id="node9" class="node">
<title>8</title>
<ellipse fill="none" stroke="black" cx="85" cy="-450" rx="27" ry="18"/>
<text text-anchor="middle" x="85" y="-446.3" font-family="Times,serif" font-size="14.00">8</text>
</g>
<!-- 7&#45;&gt;8 -->
<g id="edge10" class="edge">
<title>7&#45;&gt;8</title>
<path fill="none" stroke="black" d="M79.16,-504.41C78.3,-496.51 78.05,-486.85 78.41,-477.94"/>
<polygon fill="black" stroke="black" points="81.9,-478.18 79.12,-467.96 74.92,-477.68 81.9,-478.18"/>
</g>
<!-- 10 -->
<g id="node11" class="node">
<title>10</title>
<ellipse fill="none" stroke="black" cx="140" cy="-378" rx="27" ry="18"/>
<text text-anchor="middle" x="140" y="-374.3" font-family="Times,serif" font-size="14.00">10</text>
</g>
<!-- 7&#45;&gt;10 -->
<g id="edge11" class="edge">
<title>7&#45;&gt;10</title>
<path fill="none" stroke="black" d="M97.75,-505.7C105.56,-495.59 115.15,-481.71 121,-468 129.46,-448.17 134.3,-424.2 136.98,-406.13"/>
<polygon fill="black" stroke="black" points="140.48,-406.37 138.34,-395.99 133.54,-405.43 140.48,-406.37"/>
</g>
<!-- 8&#45;&gt;7 -->
<g id="edge8" class="edge">
<title>8&#45;&gt;7</title>
<path fill="none" stroke="black" d="M90.88,-467.96C91.71,-475.83 91.95,-485.37 91.58,-494.19"/>
<polygon fill="black" stroke="black" points="88.07,-494.18 90.84,-504.41 95.06,-494.69 88.07,-494.18"/>
</g>
<!-- 8&#45;&gt;10 -->
<g id="edge12" class="edge">
<title>8&#45;&gt;10</title>
<path fill="none" stroke="black" d="M96.93,-433.81C104.21,-424.55 113.66,-412.52 121.85,-402.09"/>
<polygon fill="black" stroke="black" points="124.66,-404.18 128.09,-394.16 119.16,-399.86 124.66,-404.18"/>
</g>
<!-- 10&#45;&gt;1 -->
<g id="edge15" class="edge">
<title>10&#45;&gt;1</title>
<path fill="none" stroke="black" d="M140,-359.7C140,-351.98 140,-342.71 140,-334.11"/>
<polygon fill="black" stroke="black" points="143.5,-334.1 140,-324.1 136.5,-334.1 143.5,-334.1"/>
</g>
<!-- 9 -->
<g id="node12" class="node">
<title>9</title>
<ellipse fill="none" stroke="black" cx="198" cy="-594" rx="27" ry="18"/>
<text text-anchor="middle" x="198" y="-590.3" font-family="Times,serif" font-size="14.00">9</text>
</g>
<!-- 9&#45;&gt;12 -->
<g id="edge14" class="edge">
<title>9&#45;&gt;12</title>
<path fill="none" stroke="black" d="M188.49,-576.76C183.47,-568.19 177.2,-557.49 171.58,-547.9"/>
<polygon fill="black" stroke="black" points="174.53,-546.01 166.46,-539.15 168.49,-549.55 174.53,-546.01"/>
</g>
<!-- 9&#45;&gt;10 -->
<g id="edge13" class="edge">
<title>9&#45;&gt;10</title>
<path fill="none" stroke="black" d="M198.77,-575.69C199.17,-557.57 198.68,-528.42 193,-504 184.61,-467.92 166.55,-429.04 153.85,-404.39"/>
<polygon fill="black" stroke="black" points="156.86,-402.59 149.11,-395.36 150.66,-405.84 156.86,-402.59"/>
</g>
</g>
</svg>
