<?xml version="1.0" encoding="UTF-8" standalone="no"?>
<!DOCTYPE svg PUBLIC "-//W3C//DTD SVG 1.1//EN"
 "http://www.w3.org/Graphics/SVG/1.1/DTD/svg11.dtd">
<!-- Generated by graphviz version 2.42.3 (0)
 -->
<!-- Title: %3 Pages: 1 -->
<svg width="381pt" height="332pt"
 viewBox="0.00 0.00 381.00 332.00" xmlns="http://www.w3.org/2000/svg" xmlns:xlink="http://www.w3.org/1999/xlink">
<g id="graph0" class="graph" transform="scale(1 1) rotate(0) translate(4 328)">
<title>%3</title>
<polygon fill="white" stroke="transparent" points="-4,4 -4,-328 377,-328 377,4 -4,4"/>
<!-- 11 -->
<g id="node1" class="node">
<title>11</title>
<ellipse fill="none" stroke="black" cx="27" cy="-306" rx="27" ry="18"/>
<text text-anchor="middle" x="27" y="-302.3" font-family="Times,serif" font-size="14.00">11</text>
</g>
<!-- 1 -->
<g id="node2" class="node">
<title>1</title>
<ellipse fill="none" stroke="black" cx="99" cy="-306" rx="27" ry="18"/>
<text text-anchor="middle" x="99" y="-302.3" font-family="Times,serif" font-size="14.00">1</text>
</g>
<!-- 2 -->
<g id="node3" class="node">
<title>2</title>
<ellipse fill="none" stroke="black" cx="126" cy="-234" rx="27" ry="18"/>
<text text-anchor="middle" x="126" y="-230.3" font-family="Times,serif" font-size="14.00">2</text>
</g>
<!-- 1&#45;&#45;2 -->
<g id="edge1" class="edge">
<title>1&#45;&#45;2</title>
<path fill="none" stroke="black" d="M105.4,-288.41C109.64,-277.41 115.19,-263.03 119.46,-251.96"/>
</g>
<!-- 3 -->
<g id="node4" class="node">
<title>3</title>
<ellipse fill="none" stroke="black" cx="71" cy="-162" rx="27" ry="18"/>
<text text-anchor="middle" x="71" y="-158.3" font-family="Times,serif" font-size="14.00">3</text>
</g>
<!-- 1&#45;&#45;3 -->
<g id="edge2" class="edge">
<title>1&#45;&#45;3</title>
<path fill="none" stroke="black" d="M95.62,-287.87C90.24,-260.58 79.78,-207.52 74.39,-180.19"/>
</g>
<!-- 2&#45;&#45;3 -->
<g id="edge3" class="edge">
<title>2&#45;&#45;3</title>
<path fill="none" stroke="black" d="M114.07,-217.81C104.84,-206.07 92.13,-189.89 82.91,-178.16"/>
</g>
<!-- 4 -->
<g id="node5" class="node">
<title>4</title>
<ellipse fill="none" stroke="black" cx="99" cy="-90" rx="27" ry="18"/>
<text text-anchor="middle" x="99" y="-86.3" font-family="Times,serif" font-size="14.00">4</text>
</g>
<!-- 2&#45;&#45;4 -->
<g id="edge4" class="edge">
<title>2&#45;&#45;4</title>
<path fill="none" stroke="black" d="M122.74,-215.87C117.55,-188.58 107.47,-135.52 102.27,-108.19"/>
</g>
<!-- 3&#45;&#45;4 -->
<g id="edge5" class="edge">
<title>3&#45;&#45;4</title>
<path fill="none" stroke="black" d="M77.64,-144.41C82.1,-133.25 87.96,-118.6 92.41,-107.47"/>
</g>
<!-- 5 -->
<g id="node6" class="node">
<title>5</title>
<ellipse fill="none" stroke="black" cx="99" cy="-18" rx="27" ry="18"/>
<text text-anchor="middle" x="99" y="-14.3" font-family="Times,serif" font-size="14.00">5</text>
</g>
<!-- 4&#45;&#45;5 -->
<g id="edge6" class="edge">
<title>4&#45;&#45;5</title>
<path fill="none" stroke="black" d="M99,-71.7C99,-60.85 99,-46.92 99,-36.1"/>
</g>
<!-- 6 -->
<g id="node7" class="node">
<title>6</title>
<ellipse fill="none" stroke="black" cx="236" cy="-306" rx="27" ry="18"/>
<text text-anchor="middle" x="236" y="-302.3" font-family="Times,serif" font-size="14.00">6</text>
</g>
<!-- 7 -->
<g id="node8" class="node">
<title>7</title>
<ellipse fill="none" stroke="black" cx="236" cy="-234" rx="27" ry="18"/>
<text text-anchor="middle" x="236" y="-230.3" font-family="Times,serif" font-size="14.00">7</text>
</g>
<!-- 6&#45;&#45;7 -->
<g id="edge7" class="edge">
<title>6&#45;&#45;7</title>
<path fill="none" stroke="black" d="M236,-287.7C236,-276.85 236,-262.92 236,-252.1"/>
</g>
<!-- 8 -->
<g id="node9" class="node">
<title>8</title>
<ellipse fill="none" stroke="black" cx="198" cy="-162" rx="27" ry="18"/>
<text text-anchor="middle" x="198" y="-158.3" font-family="Times,serif" font-size="14.00">8</text>
</g>
<!-- 6&#45;&#45;8 -->
<g id="edge8" class="edge">
<title>6&#45;&#45;8</title>
<path fill="none" stroke="black" d="M222.36,-290.03C214.19,-280.05 204.54,-266.2 200,-252 192.33,-228.01 193.61,-198.48 195.56,-180.2"/>
</g>
<!-- 10 -->
<g id="node10" class="node">
<title>10</title>
<ellipse fill="none" stroke="black" cx="291" cy="-90" rx="27" ry="18"/>
<text text-anchor="middle" x="291" y="-86.3" font-family="Times,serif" font-size="14.00">10</text>
</g>
<!-- 6&#45;&#45;10 -->
<g id="edge9" class="edge">
<title>6&#45;&#45;10</title>
<path fill="none" stroke="black" d="M249.19,-289.88C257.17,-279.83 266.79,-265.97 272,-252 290.59,-202.16 292.09,-138.16 291.6,-108.07"/>
</g>
<!-- 7&#45;&#45;8 -->
<g id="edge10" class="edge">
<title>7&#45;&#45;8</title>
<path fill="none" stroke="black" d="M227.19,-216.76C221.05,-205.46 212.89,-190.44 206.77,-179.15"/>
</g>
<!-- 7&#45;&#45;10 -->
<g id="edge11" class="edge">
<title>7&#45;&#45;10</title>
<path fill="none" stroke="black" d="M242.42,-216.43C252.96,-189.22 273.83,-135.33 284.45,-107.9"/>
</g>
<!-- 8&#45;&#45;10 -->
<g id="edge12" class="edge">
<title>8&#45;&#45;10</title>
<path fill="none" stroke="black" d="M215.49,-147.83C232.12,-135.32 256.98,-116.6 273.59,-104.11"/>
</g>
<!-- 12 -->
<g id="node12" class="node">
<title>12</title>
<ellipse fill="none" stroke="black" cx="318" cy="-18" rx="27" ry="18"/>
<text text-anchor="middle" x="318" y="-14.3" font-family="Times,serif" font-size="14.00">12</text>
</g>
<!-- 10&#45;&#45;12 -->
<g id="edge15" class="edge">
<title>10&#45;&#45;12</title>
<path fill="none" stroke="black" d="M297.4,-72.41C301.64,-61.41 307.19,-47.03 311.46,-35.96"/>
</g>
<!-- 9 -->
<g id="node11" class="node">
<title>9</title>
<ellipse fill="none" stroke="black" cx="346" cy="-162" rx="27" ry="18"/>
<text text-anchor="middle" x="346" y="-158.3" font-family="Times,serif" font-size="14.00">9</text>
</g>
<!-- 9&#45;&#45;10 -->
<g id="edge13" class="edge">
<title>9&#45;&#45;10</title>
<path fill="none" stroke="black" d="M334.07,-145.81C324.84,-134.07 312.13,-117.89 302.91,-106.16"/>
</g>
<!-- 9&#45;&#45;12 -->
<g id="edge14" class="edge">
<title>9&#45;&#45;12</title>
<path fill="none" stroke="black" d="M342.62,-143.87C337.24,-116.58 326.78,-63.52 321.39,-36.19"/>
</g>
</g>
</svg>
