<?xml version="1.0" encoding="UTF-8" standalone="no"?>
<!DOCTYPE svg PUBLIC "-//W3C//DTD SVG 1.1//EN"
 "http://www.w3.org/Graphics/SVG/1.1/DTD/svg11.dtd">
<!-- Generated by graphviz version 2.44.0 (0)
 -->
<!-- Pages: 1 -->
<svg width="802pt" height="611pt"
 viewBox="0.00 0.00 802.07 611.00" xmlns="http://www.w3.org/2000/svg" xmlns:xlink="http://www.w3.org/1999/xlink">
<g id="graph0" class="graph" transform="scale(1 1) rotate(0) translate(4 607)">
<polygon fill="white" stroke="transparent" points="-4,4 -4,-607 798.07,-607 798.07,4 -4,4"/>
<!-- start -->
<g id="node1" class="node">
<title>start</title>
<ellipse fill="none" stroke="black" cx="201.07" cy="-585" rx="29.5" ry="18"/>
<text text-anchor="middle" x="201.07" y="-581.3" font-family="Times,serif" font-size="14.00">开始</text>
</g>
<!-- input -->
<g id="node2" class="node">
<title>input</title>
<polygon fill="none" stroke="black" points="402.21,-530 82.24,-530 -0.07,-494 319.9,-494 402.21,-530"/>
<text text-anchor="middle" x="201.07" y="-508.3" font-family="Times,serif" font-size="14.00">传入参数 lineString, file, line, key</text>
</g>
<!-- start&#45;&gt;input -->
<g id="edge1" class="edge">
<title>start&#45;&gt;input</title>
<path fill="none" stroke="black" d="M201.07,-566.81C201.07,-558.79 201.07,-549.05 201.07,-540.07"/>
<polygon fill="black" stroke="black" points="204.57,-540.03 201.07,-530.03 197.57,-540.03 204.57,-540.03"/>
</g>
<!-- splitKeyValue -->
<g id="node3" class="node">
<title>splitKeyValue</title>
<polygon fill="none" stroke="black" points="287.57,-457 114.57,-457 114.57,-421 287.57,-421 287.57,-457"/>
<text text-anchor="middle" x="201.07" y="-435.3" font-family="Times,serif" font-size="14.00">解析出标签和值两个部分</text>
</g>
<!-- input&#45;&gt;splitKeyValue -->
<g id="edge2" class="edge">
<title>input&#45;&gt;splitKeyValue</title>
<path fill="none" stroke="black" d="M201.07,-493.81C201.07,-485.79 201.07,-476.05 201.07,-467.07"/>
<polygon fill="black" stroke="black" points="204.57,-467.03 201.07,-457.03 197.57,-467.03 204.57,-467.03"/>
</g>
<!-- checkSplitKeyValue -->
<g id="node5" class="node">
<title>checkSplitKeyValue</title>
<polygon fill="none" stroke="black" points="201.07,-384 80.75,-366 201.07,-348 321.39,-366 201.07,-384"/>
<text text-anchor="middle" x="201.07" y="-362.3" font-family="Times,serif" font-size="14.00">判断解析是否成功</text>
</g>
<!-- splitKeyValue&#45;&gt;checkSplitKeyValue -->
<g id="edge3" class="edge">
<title>splitKeyValue&#45;&gt;checkSplitKeyValue</title>
<path fill="none" stroke="black" d="M201.07,-420.81C201.07,-412.79 201.07,-403.05 201.07,-394.07"/>
<polygon fill="black" stroke="black" points="204.57,-394.03 201.07,-384.03 197.57,-394.03 204.57,-394.03"/>
</g>
<!-- splitValues -->
<g id="node4" class="node">
<title>splitValues</title>
<polygon fill="none" stroke="black" points="285.07,-210 183.07,-210 183.07,-174 285.07,-174 285.07,-210"/>
<text text-anchor="middle" x="234.07" y="-188.3" font-family="Times,serif" font-size="14.00">解析出值序列</text>
</g>
<!-- checkNoValue -->
<g id="node9" class="node">
<title>checkNoValue</title>
<polygon fill="none" stroke="black" points="234.07,-123 101.01,-105 234.07,-87 367.13,-105 234.07,-123"/>
<text text-anchor="middle" x="234.07" y="-101.3" font-family="Times,serif" font-size="14.00">判断值序列是否为空</text>
</g>
<!-- splitValues&#45;&gt;checkNoValue -->
<g id="edge10" class="edge">
<title>splitValues&#45;&gt;checkNoValue</title>
<path fill="none" stroke="black" d="M234.07,-173.8C234.07,-162.16 234.07,-146.55 234.07,-133.24"/>
<polygon fill="black" stroke="black" points="237.57,-133.18 234.07,-123.18 230.57,-133.18 237.57,-133.18"/>
</g>
<!-- throwFileParseException -->
<g id="node6" class="node">
<title>throwFileParseException</title>
<polygon fill="none" stroke="black" points="258.07,-297 104.07,-297 104.07,-261 258.07,-261 258.07,-297"/>
<text text-anchor="middle" x="181.07" y="-275.3" font-family="Times,serif" font-size="14.00">抛出 FileParseException</text>
</g>
<!-- checkSplitKeyValue&#45;&gt;throwFileParseException -->
<g id="edge4" class="edge">
<title>checkSplitKeyValue&#45;&gt;throwFileParseException</title>
<path fill="none" stroke="black" d="M197.12,-348.21C194.34,-336.41 190.57,-320.38 187.38,-306.82"/>
<polygon fill="black" stroke="black" points="190.78,-305.98 185.08,-297.05 183.97,-307.59 190.78,-305.98"/>
<text text-anchor="middle" x="201.57" y="-318.8" font-family="Times,serif" font-size="14.00">No</text>
</g>
<!-- checkKey -->
<g id="node7" class="node">
<title>checkKey</title>
<polygon fill="none" stroke="black" points="396.07,-297 275.75,-279 396.07,-261 516.39,-279 396.07,-297"/>
<text text-anchor="middle" x="396.07" y="-275.3" font-family="Times,serif" font-size="14.00">判断标签是否正确</text>
</g>
<!-- checkSplitKeyValue&#45;&gt;checkKey -->
<g id="edge5" class="edge">
<title>checkSplitKeyValue&#45;&gt;checkKey</title>
<path fill="none" stroke="black" d="M230.26,-352.27C264.11,-337.52 320.02,-313.15 357.44,-296.84"/>
<polygon fill="black" stroke="black" points="359.23,-299.88 367,-292.67 356.43,-293.46 359.23,-299.88"/>
<text text-anchor="middle" x="321.57" y="-318.8" font-family="Times,serif" font-size="14.00">Yes</text>
</g>
<!-- checkKey&#45;&gt;splitValues -->
<g id="edge7" class="edge">
<title>checkKey&#45;&gt;splitValues</title>
<path fill="none" stroke="black" d="M370.76,-264.72C345.35,-251.39 305.79,-230.63 275.75,-214.87"/>
<polygon fill="black" stroke="black" points="277.24,-211.7 266.76,-210.15 273.98,-217.9 277.24,-211.7"/>
<text text-anchor="middle" x="335.57" y="-231.8" font-family="Times,serif" font-size="14.00">Yes</text>
</g>
<!-- checkCase -->
<g id="node8" class="node">
<title>checkCase</title>
<polygon fill="none" stroke="black" points="502.07,-210 303.49,-192 502.07,-174 700.65,-192 502.07,-210"/>
<text text-anchor="middle" x="502.07" y="-188.3" font-family="Times,serif" font-size="14.00">判断标签是否是因为大小写错误</text>
</g>
<!-- checkKey&#45;&gt;checkCase -->
<g id="edge6" class="edge">
<title>checkKey&#45;&gt;checkCase</title>
<path fill="none" stroke="black" d="M414.05,-263.58C430.72,-250.21 455.76,-230.14 474.87,-214.81"/>
<polygon fill="black" stroke="black" points="477.31,-217.34 482.92,-208.35 472.93,-211.88 477.31,-217.34"/>
<text text-anchor="middle" x="464.57" y="-231.8" font-family="Times,serif" font-size="14.00">No</text>
</g>
<!-- throwCaseNotMatchException -->
<g id="node11" class="node">
<title>throwCaseNotMatchException</title>
<polygon fill="none" stroke="black" points="582.57,-123 397.57,-123 397.57,-87 582.57,-87 582.57,-123"/>
<text text-anchor="middle" x="490.07" y="-101.3" font-family="Times,serif" font-size="14.00">抛出 CaseNotMatchException</text>
</g>
<!-- checkCase&#45;&gt;throwCaseNotMatchException -->
<g id="edge8" class="edge">
<title>checkCase&#45;&gt;throwCaseNotMatchException</title>
<path fill="none" stroke="black" d="M499.7,-174.21C498.05,-162.52 495.81,-146.69 493.91,-133.22"/>
<polygon fill="black" stroke="black" points="497.34,-132.46 492.48,-123.05 490.41,-133.44 497.34,-132.46"/>
<text text-anchor="middle" x="507.57" y="-144.8" font-family="Times,serif" font-size="14.00">Yes</text>
</g>
<!-- throwMismatchedKeyException -->
<g id="node12" class="node">
<title>throwMismatchedKeyException</title>
<polygon fill="none" stroke="black" points="794.07,-123 600.07,-123 600.07,-87 794.07,-87 794.07,-123"/>
<text text-anchor="middle" x="697.07" y="-101.3" font-family="Times,serif" font-size="14.00">抛出 MismatchedKeyException</text>
</g>
<!-- checkCase&#45;&gt;throwMismatchedKeyException -->
<g id="edge9" class="edge">
<title>checkCase&#45;&gt;throwMismatchedKeyException</title>
<path fill="none" stroke="black" d="M534.71,-176.77C565.86,-163.19 613.18,-142.57 648.71,-127.08"/>
<polygon fill="black" stroke="black" points="650.17,-130.26 657.93,-123.06 647.37,-123.85 650.17,-130.26"/>
<text text-anchor="middle" x="620.57" y="-144.8" font-family="Times,serif" font-size="14.00">No</text>
</g>
<!-- throwValueNotFoundException -->
<g id="node10" class="node">
<title>throwValueNotFoundException</title>
<polygon fill="none" stroke="black" points="243.57,-36 54.57,-36 54.57,0 243.57,0 243.57,-36"/>
<text text-anchor="middle" x="149.07" y="-14.3" font-family="Times,serif" font-size="14.00">抛出 ValueNotFoundException</text>
</g>
<!-- checkNoValue&#45;&gt;throwValueNotFoundException -->
<g id="edge11" class="edge">
<title>checkNoValue&#45;&gt;throwValueNotFoundException</title>
<path fill="none" stroke="black" d="M218.87,-88.8C206.27,-76.2 188.1,-58.03 173.47,-43.4"/>
<polygon fill="black" stroke="black" points="175.73,-40.71 166.18,-36.11 170.78,-45.66 175.73,-40.71"/>
<text text-anchor="middle" x="207.57" y="-57.8" font-family="Times,serif" font-size="14.00">Yes</text>
</g>
<!-- returnValues -->
<g id="node13" class="node">
<title>returnValues</title>
<ellipse fill="none" stroke="black" cx="319.07" cy="-18" rx="57.39" ry="18"/>
<text text-anchor="middle" x="319.07" y="-14.3" font-family="Times,serif" font-size="14.00">返回值序列</text>
</g>
<!-- checkNoValue&#45;&gt;returnValues -->
<g id="edge12" class="edge">
<title>checkNoValue&#45;&gt;returnValues</title>
<path fill="none" stroke="black" d="M249.27,-88.8C262.03,-76.04 280.51,-57.56 295.24,-42.83"/>
<polygon fill="black" stroke="black" points="297.96,-45.06 302.55,-35.52 293.01,-40.11 297.96,-45.06"/>
<text text-anchor="middle" x="290.57" y="-57.8" font-family="Times,serif" font-size="14.00">No</text>
</g>
</g>
</svg>
